<svg fill="none" version="1.1" viewBox="0 0 1352 689" xmlns="http://www.w3.org/2000/svg">
 <rect x="805" y="41" width="547" height="648" fill="#E1DEE2"/>
 <rect y="41" width="796" height="648" fill="#E1DEE2"/>
 <rect width="796" height="41" fill="#767577"/>
 <rect x="805" y="1" width="547" height="40" fill="#767577"/>
 <g fill="#fff">
  <path d="m355.01 27v-12.96h7.326v1.728h-5.274v4.194h4.554l-0.252 1.62h-4.302v5.418h-2.052zm7.418 0 4.266-12.69c0.096-0.252 0.306-0.378 0.63-0.378 0.132 0 0.774 0.036 1.926 0.108l4.302 12.96h-2.106l-1.17-3.78h-4.554l-1.152 3.78h-2.142zm3.78-5.4h3.564l-1.8-5.832v0.108l-1.764 5.724zm8.522-1.134c0-2.712 0.876-4.626 2.628-5.742 0.924-0.6 2.058-0.9 3.402-0.9 1.332 0 2.586 0.216 3.762 0.648 0.156 0.06 0.24 0.09 0.252 0.09l-0.522 1.584c-0.012 0-0.096-0.018-0.252-0.054-0.144-0.048-0.294-0.09-0.45-0.126-0.144-0.048-0.336-0.096-0.576-0.144s-0.468-0.09-0.684-0.126c-0.48-0.096-0.99-0.144-1.53-0.144-1.344 0-2.328 0.378-2.952 1.134-0.612 0.756-0.918 2.028-0.918 3.816 0 2.028 0.354 3.384 1.062 4.068 0.36 0.348 0.756 0.588 1.188 0.72s0.954 0.198 1.566 0.198c1.116 0 2.298-0.222 3.546-0.666l0.522 1.638-0.468 0.144c-1.296 0.408-2.628 0.612-3.996 0.612-1.788 0-3.168-0.57-4.14-1.71-0.96-1.14-1.44-2.82-1.44-5.04zm14.798 6.534v-11.34h-3.834v-1.62h9.864l-0.252 1.62h-3.726v11.34h-2.052zm11.834 0.216c-1.524 0-2.79-0.552-3.798-1.656-0.996-1.116-1.494-2.736-1.494-4.86 0-2.136 0.51-3.816 1.53-5.04s2.55-1.836 4.59-1.836c1.536 0 2.802 0.552 3.798 1.656 0.996 1.092 1.494 2.706 1.494 4.842 0 2.124-0.51 3.804-1.53 5.04s-2.55 1.854-4.59 1.854zm0.342-1.728c1.356 0 2.304-0.438 2.844-1.314 0.552-0.888 0.828-2.184 0.828-3.888s-0.312-2.916-0.936-3.636c-0.612-0.732-1.47-1.098-2.574-1.098-1.38 0-2.34 0.474-2.88 1.422-0.492 0.876-0.738 2.148-0.738 3.816 0 1.656 0.306 2.856 0.918 3.6 0.612 0.732 1.458 1.098 2.538 1.098zm8.8 1.512v-12.852c0.936-0.144 2.37-0.216 4.302-0.216 1.296 0 2.292 0.372 2.988 1.116 0.696 0.732 1.044 1.674 1.044 2.826 0 0.792-0.192 1.494-0.576 2.106-0.384 0.6-0.936 1.056-1.656 1.368l1.206 2.808c0.216 0.492 0.486 0.876 0.81 1.152 0.324 0.264 0.672 0.396 1.044 0.396l-0.288 1.404h-0.432c-0.552 0-1.098-0.144-1.638-0.432-0.528-0.3-0.924-0.744-1.188-1.332l-1.62-3.582c-0.096 0.012-0.252 0.018-0.468 0.018h-1.476v5.22h-2.052zm2.052-6.804h3.024c0.168-0.06 0.354-0.204 0.558-0.432 0.36-0.408 0.54-0.996 0.54-1.764 0-1.632-0.768-2.448-2.304-2.448-0.528 0-1.134 0.03-1.818 0.09v4.554zm12.01 6.804v-5.166l-4.284-7.668 2.142-0.216 3.168 6.048 3.186-6.048 2.142 0.216-4.302 7.686v5.148h-2.052zm13.288 0v-1.152l1.89-0.36v-9.09l-1.764 1.116-0.774-1.386 1.764-1.116c0.324-0.216 0.606-0.324 0.846-0.324l1.872 0.198v10.602h1.908l-0.252 1.512h-5.49z"/>
  <path d="m1034.1 28v-12.96h7.33v1.728h-5.27v4.194h4.55l-0.25 1.62h-4.3v5.418h-2.06zm7.42 0 4.27-12.69c0.09-0.252 0.3-0.378 0.63-0.378 0.13 0 0.77 0.036 1.92 0.108l4.31 12.96h-2.11l-1.17-3.78h-4.55l-1.16 3.78h-2.14zm3.78-5.4h3.57l-1.8-5.832v0.108l-1.77 5.724zm8.52-1.134c0-2.712 0.88-4.626 2.63-5.742 0.93-0.6 2.06-0.9 3.4-0.9s2.59 0.216 3.77 0.648c0.15 0.06 0.24 0.09 0.25 0.09l-0.52 1.584c-0.02 0-0.1-0.018-0.26-0.054-0.14-0.048-0.29-0.09-0.45-0.126-0.14-0.048-0.33-0.096-0.57-0.144s-0.47-0.09-0.69-0.126c-0.48-0.096-0.99-0.144-1.53-0.144-1.34 0-2.32 0.378-2.95 1.134-0.61 0.756-0.92 2.028-0.92 3.816 0 2.028 0.36 3.384 1.07 4.068 0.36 0.348 0.75 0.588 1.18 0.72 0.44 0.132 0.96 0.198 1.57 0.198 1.12 0 2.3-0.222 3.55-0.666l0.52 1.638-0.47 0.144c-1.3 0.408-2.63 0.612-4 0.612-1.78 0-3.16-0.57-4.14-1.71-0.96-1.14-1.44-2.82-1.44-5.04zm14.8 6.534v-11.34h-3.83v-1.62h9.86l-0.25 1.62h-3.73v11.34h-2.05zm11.84 0.216c-1.53 0-2.79-0.552-3.8-1.656-1-1.116-1.5-2.736-1.5-4.86 0-2.136 0.51-3.816 1.53-5.04s2.55-1.836 4.59-1.836c1.54 0 2.81 0.552 3.8 1.656 1 1.092 1.5 2.706 1.5 4.842 0 2.124-0.51 3.804-1.53 5.04s-2.55 1.854-4.59 1.854zm0.34-1.728c1.35 0 2.3-0.438 2.84-1.314 0.55-0.888 0.83-2.184 0.83-3.888s-0.31-2.916-0.94-3.636c-0.61-0.732-1.47-1.098-2.57-1.098-1.38 0-2.34 0.474-2.88 1.422-0.49 0.876-0.74 2.148-0.74 3.816 0 1.656 0.31 2.856 0.92 3.6 0.61 0.732 1.46 1.098 2.54 1.098zm8.8 1.512v-12.852c0.93-0.144 2.37-0.216 4.3-0.216 1.3 0 2.29 0.372 2.99 1.116 0.69 0.732 1.04 1.674 1.04 2.826 0 0.792-0.19 1.494-0.57 2.106-0.39 0.6-0.94 1.056-1.66 1.368l1.21 2.808c0.21 0.492 0.48 0.876 0.81 1.152 0.32 0.264 0.67 0.396 1.04 0.396l-0.29 1.404h-0.43c-0.55 0-1.1-0.144-1.64-0.432-0.53-0.3-0.92-0.744-1.19-1.332l-1.62-3.582c-0.09 0.012-0.25 0.018-0.46 0.018h-1.48v5.22h-2.05zm2.05-6.804h3.02c0.17-0.06 0.36-0.204 0.56-0.432 0.36-0.408 0.54-0.996 0.54-1.764 0-1.632-0.77-2.448-2.3-2.448-0.53 0-1.14 0.03-1.82 0.09v4.554zm12.01 6.804v-5.166l-4.28-7.668 2.14-0.216 3.17 6.048 3.18-6.048 2.14 0.216-4.3 7.686v5.148h-2.05zm12.82 0v-0.972c0-0.636 0.13-1.236 0.4-1.8 0.26-0.564 0.58-1.038 0.97-1.422s0.82-0.768 1.28-1.152c0.46-0.396 0.89-0.75 1.27-1.062 0.4-0.324 0.73-0.69 0.99-1.098 0.27-0.408 0.4-0.828 0.4-1.26 0-0.792-0.19-1.344-0.58-1.656-0.37-0.324-0.82-0.486-1.35-0.486-0.94 0-1.87 0.282-2.79 0.846l-0.59-1.296c0.42-0.312 0.98-0.564 1.69-0.756 0.72-0.204 1.36-0.306 1.91-0.306 1.27 0 2.21 0.36 2.83 1.08 0.62 0.708 0.93 1.56 0.93 2.556 0 0.576-0.18 1.146-0.54 1.71-0.35 0.552-0.78 1.044-1.29 1.476s-1.02 0.852-1.55 1.26c-1.26 0.984-1.92 1.836-1.98 2.556h5.11v1.782h-7.11z"/>
  <rect x="4" y="45" width="85" height="88"/>
  <rect x="92" y="45" width="131" height="46"/>
  <rect x="109" y="358" width="35" height="224"/>
  <rect x="109" y="638" width="682" height="46"/>
  <rect x="809" y="45" width="538" height="639"/>
  <rect x="109" y="114" width="29" height="215"/>
  <rect x="141" y="114" width="29" height="215"/>
  <rect x="173" y="114" width="29" height="215"/>
  <rect x="205" y="114" width="29" height="215"/>
  <rect x="237" y="114" width="29" height="215"/>
  <rect x="269" y="114" width="29" height="215"/>
  <rect x="301" y="114" width="29" height="215"/>
  <rect x="349" y="114" width="29" height="215"/>
  <rect x="381" y="114" width="29" height="215"/>
  <rect x="413" y="114" width="29" height="215"/>
  <rect x="445" y="114" width="29" height="215"/>
  <rect x="477" y="114" width="29" height="215"/>
  <rect x="509" y="114" width="29" height="215"/>
  <rect x="557" y="114" width="29" height="215"/>
  <rect x="589" y="114" width="29" height="215"/>
  <rect x="621" y="114" width="29" height="215"/>
  <rect x="653" y="114" width="29" height="215"/>
  <rect x="685" y="114" width="51" height="215"/>
  <rect x="691" y="277" width="95" height="52"/>
  <rect x="147" y="358" width="35" height="224"/>
  <rect x="185" y="358" width="35" height="224"/>
  <rect x="223" y="358" width="35" height="224"/>
  <rect x="261" y="358" width="35" height="224"/>
  <rect x="299" y="358" width="35" height="224"/>
  <rect x="337" y="358" width="35" height="224"/>
  <rect x="429" y="358" width="33" height="224"/>
  <rect x="465" y="358" width="33" height="224"/>
  <rect x="501" y="358" width="33" height="224"/>
  <rect x="537" y="358" width="33" height="224"/>
  <rect x="573" y="358" width="33" height="224"/>
  <rect x="629" y="358" width="37" height="224"/>
  <rect x="669" y="358" width="37" height="224"/>
  <rect x="709" y="358" width="37" height="224"/>
  <rect x="749" y="358" width="37" height="224"/>
  <rect x="226" y="45" width="566" height="46"/>
  <rect x="4" y="137" width="85" height="134"/>
  <rect x="4" y="275" width="85" height="244"/>
 </g>
 <g fill="#626162">
  <path d="m405.02 72v-10.8h6.255v1.395h-4.545v3.27h3.945v1.305h-3.945v3.435h4.845l-0.21 1.395h-6.345zm8.829 0 0.495-10.695c0.68-0.13 1.34-0.195 1.98-0.195 0.2 0 0.345 0.11 0.435 0.33l2.865 7.83 2.865-7.83c0.09-0.22 0.235-0.33 0.435-0.33 0.72 0 1.38 0.065 1.98 0.195l0.495 10.695h-1.635l-0.255-9.195-2.745 7.695c-0.84 0.14-1.42 0.21-1.74 0.21s-0.52-0.11-0.6-0.33l-2.685-7.575-0.255 9.195h-1.635zm14.637 0v-10.71c0.78-0.12 1.975-0.18 3.585-0.18 1.08 0 1.91 0.31 2.49 0.93 0.58 0.61 0.87 1.44 0.87 2.49s-0.35 1.92-1.05 2.61c-0.69 0.69-1.635 1.035-2.835 1.035-0.24 0-0.69-0.01-1.35-0.03v3.855h-1.71zm1.71-5.175c0.24 0.01 0.63 0.015 1.17 0.015 0.82 0 1.4-0.185 1.74-0.555 0.35-0.37 0.525-0.91 0.525-1.62s-0.16-1.255-0.48-1.635-0.85-0.57-1.59-0.57c-0.45 0-0.905 0.015-1.365 0.045v4.32zm9.287 5.175v-9.45h-3.195v-1.35h8.22l-0.21 1.35h-3.105v9.45h-1.71zm9.085 0v-4.305l-3.57-6.39 1.785-0.18 2.64 5.04 2.655-5.04 1.785 0.18-3.585 6.405v4.29h-1.71zm11.779 0v-10.71c0.78-0.12 1.975-0.18 3.585-0.18 1.08 0 1.91 0.31 2.49 0.93 0.58 0.61 0.87 1.44 0.87 2.49s-0.35 1.92-1.05 2.61c-0.69 0.69-1.635 1.035-2.835 1.035-0.24 0-0.69-0.01-1.35-0.03v3.855h-1.71zm1.71-5.175c0.24 0.01 0.63 0.015 1.17 0.015 0.82 0 1.4-0.185 1.74-0.555 0.35-0.37 0.525-0.91 0.525-1.62s-0.16-1.255-0.48-1.635-0.85-0.57-1.59-0.57c-0.45 0-0.905 0.015-1.365 0.045v4.32zm11.003 5.355c-1.27 0-2.325-0.46-3.165-1.38-0.83-0.93-1.245-2.28-1.245-4.05 0-1.78 0.425-3.18 1.275-4.2s2.125-1.53 3.825-1.53c1.28 0 2.335 0.46 3.165 1.38 0.83 0.91 1.245 2.255 1.245 4.035 0 1.77-0.425 3.17-1.275 4.2s-2.125 1.545-3.825 1.545zm0.285-1.44c1.13 0 1.92-0.365 2.37-1.095 0.46-0.74 0.69-1.82 0.69-3.24s-0.26-2.43-0.78-3.03c-0.51-0.61-1.225-0.915-2.145-0.915-1.15 0-1.95 0.395-2.4 1.185-0.41 0.73-0.615 1.79-0.615 3.18 0 1.38 0.255 2.38 0.765 3 0.51 0.61 1.215 0.915 2.115 0.915zm7.334 1.26v-10.8h1.71v9.36h4.095l-0.21 1.44h-5.595zm8.993 0v-4.305l-3.57-6.39 1.785-0.18 2.64 5.04 2.655-5.04 1.785 0.18-3.585 6.405v4.29h-1.71zm7.428 0v-10.71c0.78-0.12 1.975-0.18 3.585-0.18 1.08 0 1.935 0.3 2.565 0.9 0.64 0.59 0.96 1.295 0.96 2.115 0 1.01-0.4 1.8-1.2 2.37 0.97 0.53 1.455 1.37 1.455 2.52 0 0.87-0.315 1.615-0.945 2.235-0.62 0.62-1.56 0.93-2.82 0.93-1.5 0-2.7-0.06-3.6-0.18zm1.71-6.045h2.685c0.11-0.09 0.195-0.16 0.255-0.21 0.07-0.05 0.145-0.12 0.225-0.21 0.08-0.1 0.15-0.205 0.21-0.315 0.15-0.28 0.225-0.58 0.225-0.9 0-1.24-0.725-1.86-2.175-1.86-0.31 0-0.785 0.02-1.425 0.06v3.435zm0 4.785c0.82 0.06 1.38 0.09 1.68 0.09 0.8 0 1.36-0.16 1.68-0.48 0.33-0.32 0.495-0.775 0.495-1.365 0-0.6-0.17-1.05-0.51-1.35-0.33-0.31-0.9-0.465-1.71-0.465h-1.635v3.57zm11.779 1.44c-1.27 0-2.325-0.46-3.165-1.38-0.83-0.93-1.245-2.28-1.245-4.05 0-1.78 0.425-3.18 1.275-4.2s2.125-1.53 3.825-1.53c1.28 0 2.335 0.46 3.165 1.38 0.83 0.91 1.245 2.255 1.245 4.035 0 1.77-0.425 3.17-1.275 4.2s-2.125 1.545-3.825 1.545zm0.285-1.44c1.13 0 1.92-0.365 2.37-1.095 0.46-0.74 0.69-1.82 0.69-3.24s-0.26-2.43-0.78-3.03c-0.51-0.61-1.225-0.915-2.145-0.915-1.15 0-1.95 0.395-2.4 1.185-0.41 0.73-0.615 1.79-0.615 3.18 0 1.38 0.255 2.38 0.765 3 0.51 0.61 1.215 0.915 2.115 0.915zm5.608 1.26 3.525-5.58-3.315-5.13 1.83-0.18 2.715 4.32 2.595-4.32 1.8 0.18-3.375 5.34 3.48 5.37h-1.95l-2.745-4.365-2.625 4.365h-1.935zm14.845-0.69 0.525-1.395c1.03 0.56 1.89 0.84 2.58 0.84s1.215-0.135 1.575-0.405 0.54-0.64 0.54-1.11c0-0.52-0.23-0.935-0.69-1.245-0.26-0.17-0.48-0.295-0.66-0.375-0.17-0.08-0.44-0.195-0.81-0.345-0.36-0.16-0.64-0.285-0.84-0.375-0.2-0.1-0.44-0.24-0.72-0.42-0.27-0.19-0.48-0.38-0.63-0.57-0.39-0.47-0.585-1.04-0.585-1.71 0-0.93 0.32-1.685 0.96-2.265 0.65-0.58 1.465-0.87 2.445-0.87 0.6 0 1.18 0.1 1.74 0.3s0.99 0.4 1.29 0.6l-0.6 1.305c-0.98-0.51-1.745-0.765-2.295-0.765s-0.99 0.135-1.32 0.405c-0.33 0.26-0.495 0.605-0.495 1.035 0 0.48 0.215 0.865 0.645 1.155 0.36 0.24 0.775 0.46 1.245 0.66s0.8 0.345 0.99 0.435c0.2 0.09 0.45 0.235 0.75 0.435s0.53 0.4 0.69 0.6c0.4 0.52 0.6 1.13 0.6 1.83 0 1.01-0.36 1.785-1.08 2.325-0.71 0.53-1.645 0.795-2.805 0.795s-2.175-0.29-3.045-0.87zm11.134 0.69v-9.45h-3.195v-1.35h8.22l-0.21 1.35h-3.105v9.45h-1.71zm9.862 0.18c-1.27 0-2.325-0.46-3.165-1.38-0.83-0.93-1.245-2.28-1.245-4.05 0-1.78 0.425-3.18 1.275-4.2s2.125-1.53 3.825-1.53c1.28 0 2.335 0.46 3.165 1.38 0.83 0.91 1.245 2.255 1.245 4.035 0 1.77-0.425 3.17-1.275 4.2s-2.125 1.545-3.825 1.545zm0.285-1.44c1.13 0 1.92-0.365 2.37-1.095 0.46-0.74 0.69-1.82 0.69-3.24s-0.26-2.43-0.78-3.03c-0.51-0.61-1.225-0.915-2.145-0.915-1.15 0-1.95 0.395-2.4 1.185-0.41 0.73-0.615 1.79-0.615 3.18 0 1.38 0.255 2.38 0.765 3 0.51 0.61 1.215 0.915 2.115 0.915zm7.333 1.26v-10.71c0.78-0.12 1.975-0.18 3.585-0.18 1.08 0 1.91 0.31 2.49 0.93 0.58 0.61 0.87 1.395 0.87 2.355 0 0.66-0.16 1.245-0.48 1.755-0.32 0.5-0.78 0.88-1.38 1.14l1.005 2.34c0.18 0.41 0.405 0.73 0.675 0.96 0.27 0.22 0.56 0.33 0.87 0.33l-0.24 1.17h-0.36c-0.46 0-0.915-0.12-1.365-0.36-0.44-0.25-0.77-0.62-0.99-1.11l-1.35-2.985c-0.08 0.01-0.21 0.015-0.39 0.015h-1.23v4.35h-1.71zm1.71-5.67h2.52c0.14-0.05 0.295-0.17 0.465-0.36 0.3-0.34 0.45-0.83 0.45-1.47 0-1.36-0.64-2.04-1.92-2.04-0.44 0-0.945 0.025-1.515 0.075v3.795zm6.977 5.67 3.555-10.575c0.08-0.21 0.255-0.315 0.525-0.315 0.11 0 0.645 0.03 1.605 0.09l3.585 10.8h-1.755l-0.975-3.15h-3.795l-0.96 3.15h-1.785zm3.15-4.5h2.97l-1.5-4.86v0.09l-1.47 4.77zm7.102-0.945c0-2.26 0.73-3.855 2.19-4.785 0.77-0.5 1.715-0.75 2.835-0.75 1.11 0 2.155 0.18 3.135 0.54 0.13 0.05 0.2 0.075 0.21 0.075l-0.435 1.32c-0.01 0-0.08-0.015-0.21-0.045-0.12-0.04-0.245-0.075-0.375-0.105-0.12-0.04-0.28-0.08-0.48-0.12s-0.39-0.075-0.57-0.105c-0.4-0.08-0.825-0.12-1.275-0.12-1.12 0-1.94 0.315-2.46 0.945-0.51 0.63-0.765 1.69-0.765 3.18 0 1.69 0.295 2.82 0.885 3.39 0.3 0.29 0.63 0.49 0.99 0.6s0.785 0.165 1.275 0.165 1.13-0.035 1.92-0.105v-3.255l1.71-0.195v4.425c-0.01 0-0.105 0.025-0.285 0.075-0.18 0.04-0.345 0.08-0.495 0.12-0.15 0.03-0.36 0.07-0.63 0.12-0.26 0.05-0.51 0.095-0.75 0.135-0.6 0.08-1.19 0.12-1.77 0.12-1.49 0-2.64-0.475-3.45-1.425-0.8-0.95-1.2-2.35-1.2-4.2zm11.369 5.445v-10.8h6.255v1.395h-4.545v3.27h3.945v1.305h-3.945v3.435h4.845l-0.21 1.395h-6.345z"/>
  <path d="m302.92 664.56c0-2.26 0.73-3.855 2.19-4.785 0.77-0.5 1.715-0.75 2.835-0.75 1.11 0 2.155 0.18 3.135 0.54 0.13 0.05 0.2 0.075 0.21 0.075l-0.435 1.32c-0.01 0-0.08-0.015-0.21-0.045-0.12-0.04-0.245-0.075-0.375-0.105-0.12-0.04-0.28-0.08-0.48-0.12s-0.39-0.075-0.57-0.105c-0.4-0.08-0.825-0.12-1.275-0.12-1.12 0-1.94 0.315-2.46 0.945-0.51 0.63-0.765 1.69-0.765 3.18 0 1.69 0.295 2.82 0.885 3.39 0.3 0.29 0.63 0.49 0.99 0.6s0.795 0.165 1.305 0.165c0.93 0 1.915-0.185 2.955-0.555l0.435 1.365-0.39 0.12c-1.08 0.34-2.19 0.51-3.33 0.51-1.49 0-2.64-0.475-3.45-1.425-0.8-0.95-1.2-2.35-1.2-4.2zm10.652 5.445v-10.8h1.71v4.5h4.53v-4.5h1.71v10.8h-1.71v-4.86h-4.53v4.86h-1.71zm11.192 0v-10.8h1.71v10.8h-1.71zm4.951 0v-10.8h1.71v9.36h4.095l-0.21 1.44h-5.595zm7.881 0v-10.725c1.21-0.11 2.575-0.165 4.095-0.165 1.29 0 2.345 0.445 3.165 1.335 0.83 0.89 1.245 2.22 1.245 3.99 0 1.76-0.425 3.145-1.275 4.155-0.85 1-2.15 1.5-3.9 1.5s-2.86-0.03-3.33-0.09zm1.71-1.32c0.6 0.04 1.26 0.06 1.98 0.06 1.13 0 1.92-0.365 2.37-1.095 0.46-0.74 0.69-1.82 0.69-3.24s-0.26-2.43-0.78-3.03c-0.51-0.61-1.225-0.915-2.145-0.915-0.41 0-1.115 0.03-2.115 0.09v8.13zm13.67 1.32v-10.71c0.78-0.12 1.975-0.18 3.585-0.18 1.08 0 1.91 0.31 2.49 0.93 0.58 0.61 0.87 1.44 0.87 2.49s-0.35 1.92-1.05 2.61c-0.69 0.69-1.635 1.035-2.835 1.035-0.24 0-0.69-0.01-1.35-0.03v3.855h-1.71zm1.71-5.175c0.24 0.01 0.63 0.015 1.17 0.015 0.82 0 1.4-0.185 1.74-0.555 0.35-0.37 0.525-0.91 0.525-1.62s-0.16-1.255-0.48-1.635-0.85-0.57-1.59-0.57c-0.45 0-0.905 0.015-1.365 0.045v4.32zm5.307 5.175 3.555-10.575c0.08-0.21 0.255-0.315 0.525-0.315 0.11 0 0.645 0.03 1.605 0.09l3.585 10.8h-1.755l-0.975-3.15h-3.795l-0.96 3.15h-1.785zm3.15-4.5h2.97l-1.5-4.86v0.09l-1.47 4.77zm8.115 4.5v-10.71c0.78-0.12 1.975-0.18 3.585-0.18 1.08 0 1.91 0.31 2.49 0.93 0.58 0.61 0.87 1.395 0.87 2.355 0 0.66-0.16 1.245-0.48 1.755-0.32 0.5-0.78 0.88-1.38 1.14l1.005 2.34c0.18 0.41 0.405 0.73 0.675 0.96 0.27 0.22 0.56 0.33 0.87 0.33l-0.24 1.17h-0.36c-0.46 0-0.915-0.12-1.365-0.36-0.44-0.25-0.77-0.62-0.99-1.11l-1.35-2.985c-0.08 0.01-0.21 0.015-0.39 0.015h-1.23v4.35h-1.71zm1.71-5.67h2.52c0.14-0.05 0.295-0.17 0.465-0.36 0.3-0.34 0.45-0.83 0.45-1.47 0-1.36-0.64-2.04-1.92-2.04-0.44 0-0.945 0.025-1.515 0.075v3.795zm9.301 5.67v-9.45h-3.195v-1.35h8.22l-0.21 1.35h-3.105v9.45h-1.71zm10.976 0v-10.71c0.78-0.12 1.975-0.18 3.585-0.18 1.08 0 1.91 0.31 2.49 0.93 0.58 0.61 0.87 1.44 0.87 2.49s-0.35 1.92-1.05 2.61c-0.69 0.69-1.635 1.035-2.835 1.035-0.24 0-0.69-0.01-1.35-0.03v3.855h-1.71zm1.71-5.175c0.24 0.01 0.63 0.015 1.17 0.015 0.82 0 1.4-0.185 1.74-0.555 0.35-0.37 0.525-0.91 0.525-1.62s-0.16-1.255-0.48-1.635-0.85-0.57-1.59-0.57c-0.45 0-0.905 0.015-1.365 0.045v4.32zm11.003 5.355c-1.27 0-2.325-0.46-3.165-1.38-0.83-0.93-1.245-2.28-1.245-4.05 0-1.78 0.425-3.18 1.275-4.2s2.125-1.53 3.825-1.53c1.28 0 2.335 0.46 3.165 1.38 0.83 0.91 1.245 2.255 1.245 4.035 0 1.77-0.425 3.17-1.275 4.2s-2.125 1.545-3.825 1.545zm0.285-1.44c1.13 0 1.92-0.365 2.37-1.095 0.46-0.74 0.69-1.82 0.69-3.24s-0.26-2.43-0.78-3.03c-0.51-0.61-1.225-0.915-2.145-0.915-1.15 0-1.95 0.395-2.4 1.185-0.41 0.73-0.615 1.79-0.615 3.18 0 1.38 0.255 2.38 0.765 3 0.51 0.61 1.215 0.915 2.115 0.915zm7.334 1.26v-10.8h1.71v9.36h4.095l-0.21 1.44h-5.595zm8.993 0v-4.305l-3.57-6.39 1.785-0.18 2.64 5.04 2.655-5.04 1.785 0.18-3.585 6.405v4.29h-1.71zm7.428 0v-10.71c0.78-0.12 1.975-0.18 3.585-0.18 1.08 0 1.935 0.3 2.565 0.9 0.64 0.59 0.96 1.295 0.96 2.115 0 1.01-0.4 1.8-1.2 2.37 0.97 0.53 1.455 1.37 1.455 2.52 0 0.87-0.315 1.615-0.945 2.235-0.62 0.62-1.56 0.93-2.82 0.93-1.5 0-2.7-0.06-3.6-0.18zm1.71-6.045h2.685c0.11-0.09 0.195-0.16 0.255-0.21 0.07-0.05 0.145-0.12 0.225-0.21 0.08-0.1 0.15-0.205 0.21-0.315 0.15-0.28 0.225-0.58 0.225-0.9 0-1.24-0.725-1.86-2.175-1.86-0.31 0-0.785 0.02-1.425 0.06v3.435zm0 4.785c0.82 0.06 1.38 0.09 1.68 0.09 0.8 0 1.36-0.16 1.68-0.48 0.33-0.32 0.495-0.775 0.495-1.365 0-0.6-0.17-1.05-0.51-1.35-0.33-0.31-0.9-0.465-1.71-0.465h-1.635v3.57zm11.78 1.44c-1.27 0-2.325-0.46-3.165-1.38-0.83-0.93-1.245-2.28-1.245-4.05 0-1.78 0.425-3.18 1.275-4.2s2.125-1.53 3.825-1.53c1.28 0 2.335 0.46 3.165 1.38 0.83 0.91 1.245 2.255 1.245 4.035 0 1.77-0.425 3.17-1.275 4.2s-2.125 1.545-3.825 1.545zm0.285-1.44c1.13 0 1.92-0.365 2.37-1.095 0.46-0.74 0.69-1.82 0.69-3.24s-0.26-2.43-0.78-3.03c-0.51-0.61-1.225-0.915-2.145-0.915-1.15 0-1.95 0.395-2.4 1.185-0.41 0.73-0.615 1.79-0.615 3.18 0 1.38 0.255 2.38 0.765 3 0.51 0.61 1.215 0.915 2.115 0.915zm5.608 1.26 3.525-5.58-3.315-5.13 1.83-0.18 2.715 4.32 2.595-4.32 1.8 0.18-3.375 5.34 3.48 5.37h-1.95l-2.745-4.365-2.625 4.365h-1.935zm17.395 0v-9.45h-3.195v-1.35h8.22l-0.21 1.35h-3.105v9.45h-1.71zm6.625 0v-10.8h6.255v1.395h-4.545v3.27h3.945v1.305h-3.945v3.435h4.845l-0.21 1.395h-6.345zm8.83 0 0.495-10.695c0.68-0.13 1.34-0.195 1.98-0.195 0.2 0 0.345 0.11 0.435 0.33l2.865 7.83 2.865-7.83c0.09-0.22 0.235-0.33 0.435-0.33 0.72 0 1.38 0.065 1.98 0.195l0.495 10.695h-1.635l-0.255-9.195-2.745 7.695c-0.84 0.14-1.42 0.21-1.74 0.21s-0.52-0.11-0.6-0.33l-2.685-7.575-0.255 9.195h-1.635zm14.637 0v-10.71c0.78-0.12 1.975-0.18 3.585-0.18 1.08 0 1.91 0.31 2.49 0.93 0.58 0.61 0.87 1.44 0.87 2.49s-0.35 1.92-1.05 2.61c-0.69 0.69-1.635 1.035-2.835 1.035-0.24 0-0.69-0.01-1.35-0.03v3.855h-1.71zm1.71-5.175c0.24 0.01 0.63 0.015 1.17 0.015 0.82 0 1.4-0.185 1.74-0.555 0.35-0.37 0.525-0.91 0.525-1.62s-0.16-1.255-0.48-1.635-0.85-0.57-1.59-0.57c-0.45 0-0.905 0.015-1.365 0.045v4.32zm11.003 5.355c-1.27 0-2.325-0.46-3.165-1.38-0.83-0.93-1.245-2.28-1.245-4.05 0-1.78 0.425-3.18 1.275-4.2s2.125-1.53 3.825-1.53c1.28 0 2.335 0.46 3.165 1.38 0.83 0.91 1.245 2.255 1.245 4.035 0 1.77-0.425 3.17-1.275 4.2s-2.125 1.545-3.825 1.545zm0.285-1.44c1.13 0 1.92-0.365 2.37-1.095 0.46-0.74 0.69-1.82 0.69-3.24s-0.26-2.43-0.78-3.03c-0.51-0.61-1.225-0.915-2.145-0.915-1.15 0-1.95 0.395-2.4 1.185-0.41 0.73-0.615 1.79-0.615 3.18 0 1.38 0.255 2.38 0.765 3 0.51 0.61 1.215 0.915 2.115 0.915zm7.334 1.26v-10.71c0.78-0.12 1.975-0.18 3.585-0.18 1.08 0 1.91 0.31 2.49 0.93 0.58 0.61 0.87 1.395 0.87 2.355 0 0.66-0.16 1.245-0.48 1.755-0.32 0.5-0.78 0.88-1.38 1.14l1.005 2.34c0.18 0.41 0.405 0.73 0.675 0.96 0.27 0.22 0.56 0.33 0.87 0.33l-0.24 1.17h-0.36c-0.46 0-0.915-0.12-1.365-0.36-0.44-0.25-0.77-0.62-0.99-1.11l-1.35-2.985c-0.08 0.01-0.21 0.015-0.39 0.015h-1.23v4.35h-1.71zm1.71-5.67h2.52c0.14-0.05 0.295-0.17 0.465-0.36 0.3-0.34 0.45-0.83 0.45-1.47 0-1.36-0.64-2.04-1.92-2.04-0.44 0-0.945 0.025-1.515 0.075v3.795zm6.977 5.67 3.555-10.575c0.08-0.21 0.255-0.315 0.525-0.315 0.11 0 0.645 0.03 1.605 0.09l3.585 10.8h-1.755l-0.975-3.15h-3.795l-0.96 3.15h-1.785zm3.15-4.5h2.97l-1.5-4.86v0.09l-1.47 4.77zm8.114 4.5v-10.71c0.78-0.12 1.975-0.18 3.585-0.18 1.08 0 1.91 0.31 2.49 0.93 0.58 0.61 0.87 1.395 0.87 2.355 0 0.66-0.16 1.245-0.48 1.755-0.32 0.5-0.78 0.88-1.38 1.14l1.005 2.34c0.18 0.41 0.405 0.73 0.675 0.96 0.27 0.22 0.56 0.33 0.87 0.33l-0.24 1.17h-0.36c-0.46 0-0.915-0.12-1.365-0.36-0.44-0.25-0.77-0.62-0.99-1.11l-1.35-2.985c-0.08 0.01-0.21 0.015-0.39 0.015h-1.23v4.35h-1.71zm1.71-5.67h2.52c0.14-0.05 0.295-0.17 0.465-0.36 0.3-0.34 0.45-0.83 0.45-1.47 0-1.36-0.64-2.04-1.92-2.04-0.44 0-0.945 0.025-1.515 0.075v3.795zm10.008 5.67v-4.305l-3.57-6.39 1.785-0.18 2.64 5.04 2.655-5.04 1.785 0.18-3.585 6.405v4.29h-1.71zm10.533 0 3.555-10.575c0.08-0.21 0.255-0.315 0.525-0.315 0.11 0 0.645 0.03 1.605 0.09l3.585 10.8h-1.755l-0.975-3.15h-3.795l-0.96 3.15h-1.785zm3.15-4.5h2.97l-1.5-4.86v0.09l-1.47 4.77zm8.115 4.5v-10.71c0.78-0.12 1.975-0.18 3.585-0.18 1.08 0 1.91 0.31 2.49 0.93 0.58 0.61 0.87 1.395 0.87 2.355 0 0.66-0.16 1.245-0.48 1.755-0.32 0.5-0.78 0.88-1.38 1.14l1.005 2.34c0.18 0.41 0.405 0.73 0.675 0.96 0.27 0.22 0.56 0.33 0.87 0.33l-0.24 1.17h-0.36c-0.46 0-0.915-0.12-1.365-0.36-0.44-0.25-0.77-0.62-0.99-1.11l-1.35-2.985c-0.08 0.01-0.21 0.015-0.39 0.015h-1.23v4.35h-1.71zm1.71-5.67h2.52c0.14-0.05 0.295-0.17 0.465-0.36 0.3-0.34 0.45-0.83 0.45-1.47 0-1.36-0.64-2.04-1.92-2.04-0.44 0-0.945 0.025-1.515 0.075v3.795zm8.221 5.67v-10.8h6.255v1.395h-4.545v3.27h3.945v1.305h-3.945v3.435h4.845l-0.21 1.395h-6.345zm7.735 0 3.555-10.575c0.08-0.21 0.255-0.315 0.525-0.315 0.11 0 0.645 0.03 1.605 0.09l3.585 10.8h-1.755l-0.975-3.15h-3.795l-0.96 3.15h-1.785zm3.15-4.5h2.97l-1.5-4.86v0.09l-1.47 4.77z"/>
  <path d="m124.57 63.664c-1.016 0-1.86-0.348-2.532-1.044-0.664-0.704-0.996-1.728-0.996-3.072s0.34-2.4 1.02-3.168c0.68-0.776 1.7-1.164 3.06-1.164 1.024 0 1.868 0.348 2.532 1.044 0.664 0.688 0.996 1.704 0.996 3.048s-0.34 2.408-1.02 3.192c-0.68 0.776-1.7 1.164-3.06 1.164zm0.228-1.152c0.904 0 1.536-0.272 1.896-0.816 0.368-0.544 0.552-1.344 0.552-2.4s-0.208-1.808-0.624-2.256c-0.408-0.448-0.98-0.672-1.716-0.672-0.896 0-1.524 0.272-1.884 0.816-0.352 0.536-0.528 1.332-0.528 2.388 0 1.048 0.204 1.8 0.612 2.256s0.972 0.684 1.692 0.684zm-1.728 1.536c1.248 0 2.276 0.176 3.084 0.528 0.344 0.144 0.664 0.288 0.96 0.432 0.704 0.344 1.352 0.516 1.944 0.516l-0.252 1.14c-0.848 0-1.596-0.172-2.244-0.516-0.264-0.144-0.54-0.288-0.828-0.432-0.688-0.344-1.576-0.516-2.664-0.516v-1.152zm7.25-2.652v-6.036h1.368v5.82c0 0.576 0.14 1.036 0.42 1.38 0.288 0.336 0.728 0.504 1.32 0.504 1.216 0 1.824-0.624 1.824-1.872v-5.832h1.368v5.616c0 0.968-0.276 1.74-0.828 2.316-0.552 0.568-1.348 0.852-2.388 0.852s-1.816-0.244-2.328-0.732c-0.504-0.496-0.756-1.168-0.756-2.016zm7.681 2.604 2.844-8.46c0.064-0.168 0.204-0.252 0.42-0.252 0.088 0 0.516 0.024 1.284 0.072l2.868 8.64h-1.404l-0.78-2.52h-3.036l-0.768 2.52h-1.428zm2.52-3.6h2.376l-1.2-3.888v0.072l-1.176 3.816zm6.492 3.6v-8.568c0.624-0.096 1.58-0.144 2.868-0.144 0.864 0 1.528 0.248 1.992 0.744 0.464 0.488 0.696 1.116 0.696 1.884 0 0.528-0.128 0.996-0.384 1.404-0.256 0.4-0.624 0.704-1.104 0.912l0.804 1.872c0.144 0.328 0.324 0.584 0.54 0.768 0.216 0.176 0.448 0.264 0.696 0.264l-0.192 0.936h-0.288c-0.368 0-0.732-0.096-1.092-0.288-0.352-0.2-0.616-0.496-0.792-0.888l-1.08-2.388c-0.064 8e-3 -0.168 0.012-0.312 0.012h-0.984v3.48h-1.368zm1.368-4.536h2.016c0.112-0.04 0.236-0.136 0.372-0.288 0.24-0.272 0.36-0.664 0.36-1.176 0-1.088-0.512-1.632-1.536-1.632-0.352 0-0.756 0.02-1.212 0.06v3.036zm5.581 4.536 2.844-8.46c0.064-0.168 0.204-0.252 0.42-0.252 0.088 0 0.516 0.024 1.284 0.072l2.868 8.64h-1.404l-0.78-2.52h-3.036l-0.768 2.52h-1.428zm2.52-3.6h2.376l-1.2-3.888v0.072l-1.176 3.816zm13.008 3.6-0.936 0.108c-0.168 0-0.316-0.1-0.444-0.3l-3.948-6.348 0.18 6.54h-1.368v-8.64l0.936-0.108c0.176 0 0.328 0.1 0.456 0.3l3.972 6.336-0.216-6.528h1.368v8.64zm3.933 0v-7.56h-2.556v-1.08h6.576l-0.168 1.08h-2.484v7.56h-1.368zm5.301 0v-8.64h1.368v8.64h-1.368zm10.477 0-0.936 0.108c-0.168 0-0.316-0.1-0.444-0.3l-3.948-6.348 0.18 6.54h-1.368v-8.64l0.936-0.108c0.176 0 0.328 0.1 0.456 0.3l3.972 6.336-0.216-6.528h1.368v8.64zm2.589 0v-8.64h5.004v1.116h-3.636v2.616h3.156v1.044h-3.156v2.748h3.876l-0.168 1.116h-5.076zm-48.07 14 2.844-8.46c0.064-0.168 0.204-0.252 0.42-0.252 0.088 0 0.516 0.024 1.284 0.072l2.868 8.64h-1.404l-0.78-2.52h-3.036l-0.768 2.52h-1.428zm2.52-3.6h2.376l-1.2-3.888v0.072l-1.176 3.816zm6.492 3.6v-8.568c0.624-0.096 1.58-0.144 2.868-0.144 0.864 0 1.528 0.248 1.992 0.744 0.464 0.488 0.696 1.116 0.696 1.884 0 0.528-0.128 0.996-0.384 1.404-0.256 0.4-0.624 0.704-1.104 0.912l0.804 1.872c0.144 0.328 0.324 0.584 0.54 0.768 0.216 0.176 0.448 0.264 0.696 0.264l-0.192 0.936h-0.288c-0.368 0-0.732-0.096-1.092-0.288-0.352-0.2-0.616-0.496-0.792-0.888l-1.08-2.388c-0.064 8e-3 -0.168 0.012-0.312 0.012h-0.984v3.48h-1.368zm1.368-4.536h2.016c0.112-0.04 0.236-0.136 0.372-0.288 0.24-0.272 0.36-0.664 0.36-1.176 0-1.088-0.512-1.632-1.536-1.632-0.352 0-0.756 0.02-1.212 0.06v3.036zm6.577 4.536v-8.64h5.004v1.116h-3.636v2.616h3.156v1.044h-3.156v2.748h3.876l-0.168 1.116h-5.076zm6.187 0 2.844-8.46c0.064-0.168 0.204-0.252 0.42-0.252 0.088 0 0.516 0.024 1.284 0.072l2.868 8.64h-1.404l-0.78-2.52h-3.036l-0.768 2.52h-1.428zm2.52-3.6h2.376l-1.2-3.888v0.072l-1.176 3.816z"/>
  <path d="m15.364 92.7-1.86-8.256 1.428-0.168 1.512 7.74 1.32-5.52c0.04-0.176 0.164-0.264 0.372-0.264 0.216 0 0.456 0.02 0.72 0.06s0.432 0.076 0.504 0.108l1.38 5.568 1.488-7.692 1.428 0.168-1.932 8.472c-0.088 0.04-0.308 0.076-0.66 0.108-0.352 0.04-0.668 0.06-0.948 0.06-0.272 0-0.436-0.128-0.492-0.384l-1.044-4.764-1.104 4.98c-0.088 0.04-0.312 0.076-0.672 0.108-0.352 0.04-0.668 0.06-0.948 0.06s-0.444-0.128-0.492-0.384zm12.669 0.444c-1.016 0-1.86-0.368-2.532-1.104-0.664-0.744-0.996-1.824-0.996-3.24 0-1.424 0.34-2.544 1.02-3.36s1.7-1.224 3.06-1.224c1.024 0 1.868 0.368 2.532 1.104 0.664 0.728 0.996 1.804 0.996 3.228 0 1.416-0.34 2.536-1.02 3.36s-1.7 1.236-3.06 1.236zm0.228-1.152c0.904 0 1.536-0.292 1.896-0.876 0.368-0.592 0.552-1.456 0.552-2.592s-0.208-1.944-0.624-2.424c-0.408-0.488-0.98-0.732-1.716-0.732-0.92 0-1.56 0.316-1.92 0.948-0.328 0.584-0.492 1.432-0.492 2.544 0 1.104 0.204 1.904 0.612 2.4 0.408 0.488 0.972 0.732 1.692 0.732zm5.8668 1.008v-8.568c0.624-0.096 1.58-0.144 2.868-0.144 0.864 0 1.528 0.248 1.992 0.744 0.464 0.488 0.696 1.116 0.696 1.884 0 0.528-0.128 0.996-0.384 1.404-0.256 0.4-0.624 0.704-1.104 0.912l0.804 1.872c0.144 0.328 0.324 0.584 0.54 0.768 0.216 0.176 0.448 0.264 0.696 0.264l-0.192 0.936h-0.288c-0.368 0-0.732-0.096-1.092-0.288-0.352-0.2-0.616-0.496-0.792-0.888l-1.08-2.388c-0.064 8e-3 -0.168 0.012-0.312 0.012h-0.984v3.48h-1.368zm1.368-4.536h2.016c0.112-0.04 0.236-0.136 0.372-0.288 0.24-0.272 0.36-0.664 0.36-1.176 0-1.088-0.512-1.632-1.536-1.632-0.352 0-0.756 0.02-1.212 0.06v3.036zm6.5773 4.536v-8.64h1.368v3.72l3.168-3.804 1.428 0.168-2.844 3.324 3.036 5.232h-1.572l-2.364-4.188-0.852 1.008v3.18h-1.368zm7.0619-0.552 0.42-1.116c0.824 0.448 1.512 0.672 2.064 0.672s0.972-0.108 1.26-0.324 0.432-0.512 0.432-0.888c0-0.416-0.184-0.748-0.552-0.996-0.208-0.136-0.384-0.236-0.528-0.3-0.136-0.064-0.352-0.156-0.648-0.276-0.288-0.128-0.512-0.228-0.672-0.3-0.16-0.08-0.352-0.192-0.576-0.336-0.216-0.152-0.384-0.304-0.504-0.456-0.312-0.376-0.468-0.832-0.468-1.368 0-0.744 0.256-1.348 0.768-1.812 0.52-0.464 1.172-0.696 1.956-0.696 0.48 0 0.944 0.08 1.392 0.24s0.792 0.32 1.032 0.48l-0.48 1.044c-0.784-0.408-1.396-0.612-1.836-0.612s-0.792 0.108-1.056 0.324c-0.264 0.208-0.396 0.484-0.396 0.828 0 0.384 0.172 0.692 0.516 0.924 0.288 0.192 0.62 0.368 0.996 0.528s0.64 0.276 0.792 0.348c0.16 0.072 0.36 0.188 0.6 0.348s0.424 0.32 0.552 0.48c0.32 0.416 0.48 0.904 0.48 1.464 0 0.808-0.288 1.428-0.864 1.86-0.568 0.424-1.316 0.636-2.244 0.636s-1.74-0.232-2.436-0.696zm7.5631 0.552v-8.64h1.368v3.6h3.624v-3.6h1.368v8.64h-1.368v-3.888h-3.624v3.888h-1.368zm11.905 0.144c-1.016 0-1.86-0.368-2.532-1.104-0.664-0.744-0.996-1.824-0.996-3.24 0-1.424 0.34-2.544 1.02-3.36s1.7-1.224 3.06-1.224c1.024 0 1.868 0.368 2.532 1.104 0.664 0.728 0.996 1.804 0.996 3.228 0 1.416-0.34 2.536-1.02 3.36s-1.7 1.236-3.06 1.236zm0.228-1.152c0.904 0 1.536-0.292 1.896-0.876 0.368-0.592 0.552-1.456 0.552-2.592s-0.208-1.944-0.624-2.424c-0.408-0.488-0.98-0.732-1.716-0.732-0.92 0-1.56 0.316-1.92 0.948-0.328 0.584-0.492 1.432-0.492 2.544 0 1.104 0.204 1.904 0.612 2.4 0.408 0.488 0.972 0.732 1.692 0.732zm5.8668 1.008v-8.568c0.624-0.096 1.58-0.144 2.868-0.144 0.864 0 1.528 0.248 1.992 0.744 0.464 0.488 0.696 1.152 0.696 1.992s-0.28 1.536-0.84 2.088c-0.552 0.552-1.308 0.828-2.268 0.828-0.192 0-0.552-8e-3 -1.08-0.024v3.084h-1.368zm1.368-4.14c0.192 8e-3 0.504 0.012 0.936 0.012 0.656 0 1.12-0.148 1.392-0.444 0.28-0.296 0.42-0.728 0.42-1.296s-0.128-1.004-0.384-1.308-0.68-0.456-1.272-0.456c-0.36 0-0.724 0.012-1.092 0.036v3.456z"/>
  <path d="m25.938 214.45 0.42-1.116c0.824 0.448 1.512 0.672 2.064 0.672s0.972-0.108 1.26-0.324 0.432-0.512 0.432-0.888c0-0.416-0.184-0.748-0.552-0.996-0.208-0.136-0.384-0.236-0.528-0.3-0.136-0.064-0.352-0.156-0.648-0.276-0.288-0.128-0.512-0.228-0.672-0.3-0.16-0.08-0.352-0.192-0.576-0.336-0.216-0.152-0.384-0.304-0.504-0.456-0.312-0.376-0.468-0.832-0.468-1.368 0-0.744 0.256-1.348 0.768-1.812 0.52-0.464 1.172-0.696 1.956-0.696 0.48 0 0.944 0.08 1.392 0.24s0.792 0.32 1.032 0.48l-0.48 1.044c-0.784-0.408-1.396-0.612-1.836-0.612s-0.792 0.108-1.056 0.324c-0.264 0.208-0.396 0.484-0.396 0.828 0 0.384 0.172 0.692 0.516 0.924 0.288 0.192 0.62 0.368 0.996 0.528s0.64 0.276 0.792 0.348c0.16 0.072 0.36 0.188 0.6 0.348s0.424 0.32 0.552 0.48c0.32 0.416 0.48 0.904 0.48 1.464 0 0.808-0.288 1.428-0.864 1.86-0.568 0.424-1.316 0.636-2.244 0.636s-1.74-0.232-2.436-0.696zm8.9072 0.552v-7.56h-2.556v-1.08h6.576l-0.168 1.08h-2.484v7.56h-1.368zm7.8892 0.144c-1.016 0-1.86-0.368-2.532-1.104-0.664-0.744-0.996-1.824-0.996-3.24 0-1.424 0.34-2.544 1.02-3.36s1.7-1.224 3.06-1.224c1.024 0 1.868 0.368 2.532 1.104 0.664 0.728 0.996 1.804 0.996 3.228 0 1.416-0.34 2.536-1.02 3.36s-1.7 1.236-3.06 1.236zm0.228-1.152c0.904 0 1.536-0.292 1.896-0.876 0.368-0.592 0.552-1.456 0.552-2.592s-0.208-1.944-0.624-2.424c-0.408-0.488-0.98-0.732-1.716-0.732-0.92 0-1.56 0.316-1.92 0.948-0.328 0.584-0.492 1.432-0.492 2.544 0 1.104 0.204 1.904 0.612 2.4 0.408 0.488 0.972 0.732 1.692 0.732zm5.8669 1.008v-8.568c0.624-0.096 1.58-0.144 2.868-0.144 0.864 0 1.528 0.248 1.992 0.744 0.464 0.488 0.696 1.116 0.696 1.884 0 0.528-0.128 0.996-0.384 1.404-0.256 0.4-0.624 0.704-1.104 0.912l0.804 1.872c0.144 0.328 0.324 0.584 0.54 0.768 0.216 0.176 0.448 0.264 0.696 0.264l-0.192 0.936h-0.288c-0.368 0-0.732-0.096-1.092-0.288-0.352-0.2-0.616-0.496-0.792-0.888l-1.08-2.388c-0.064 8e-3 -0.168 0.012-0.312 0.012h-0.984v3.48h-1.368zm1.368-4.536h2.016c0.112-0.04 0.236-0.136 0.372-0.288 0.24-0.272 0.36-0.664 0.36-1.176 0-1.088-0.512-1.632-1.536-1.632-0.352 0-0.756 0.02-1.212 0.06v3.036zm6.5773 4.536v-8.64h5.004v1.116h-3.636v2.616h3.156v1.044h-3.156v2.748h3.876l-0.168 1.116h-5.076z"/>
  <path d="m36.416 382.66c-1.016 0-1.86-0.348-2.532-1.044-0.664-0.704-0.996-1.728-0.996-3.072s0.34-2.4 1.02-3.168c0.68-0.776 1.7-1.164 3.06-1.164 1.024 0 1.868 0.348 2.532 1.044 0.664 0.688 0.996 1.704 0.996 3.048s-0.34 2.408-1.02 3.192c-0.68 0.776-1.7 1.164-3.06 1.164zm0.228-1.152c0.904 0 1.536-0.272 1.896-0.816 0.368-0.544 0.552-1.344 0.552-2.4s-0.208-1.808-0.624-2.256c-0.408-0.448-0.98-0.672-1.716-0.672-0.896 0-1.524 0.272-1.884 0.816-0.352 0.536-0.528 1.332-0.528 2.388 0 1.048 0.204 1.8 0.612 2.256s0.972 0.684 1.692 0.684zm-1.728 1.536c1.248 0 2.276 0.176 3.084 0.528 0.344 0.144 0.664 0.288 0.96 0.432 0.704 0.344 1.352 0.516 1.944 0.516l-0.252 1.14c-0.848 0-1.596-0.172-2.244-0.516-0.264-0.144-0.54-0.288-0.828-0.432-0.688-0.344-1.576-0.516-2.664-0.516v-1.152zm6.2356-0.048 2.844-8.46c0.064-0.168 0.204-0.252 0.42-0.252 0.088 0 0.516 0.024 1.284 0.072l2.868 8.64h-1.404l-0.78-2.52h-3.036l-0.768 2.52h-1.428zm2.52-3.6h2.376l-1.2-3.888v0.072l-1.176 3.816zm15.024-2.556v1.188h1.476l-0.456 1.032h-1.02v1.668c0 0.744 0.208 1.116 0.624 1.116 0.032 0 0.188-0.028 0.468-0.084l0.204 1.176c-0.408 0.136-0.744 0.204-1.008 0.204-0.608 0-1.048-0.212-1.32-0.636-0.16 0.16-0.432 0.308-0.816 0.444-0.376 0.128-0.792 0.192-1.248 0.192-0.768 0-1.396-0.208-1.884-0.624-0.48-0.424-0.72-1.032-0.72-1.824 0-0.968 0.356-1.652 1.068-2.052v-0.048c-0.144-0.112-0.304-0.268-0.48-0.468-0.336-0.4-0.504-0.888-0.504-1.464 0-0.712 0.26-1.296 0.78-1.752 0.528-0.464 1.172-0.696 1.932-0.696s1.496 0.168 2.208 0.504l-0.444 1.032c-0.568-0.256-1.072-0.384-1.512-0.384-0.432 0-0.796 0.108-1.092 0.324-0.288 0.216-0.432 0.552-0.432 1.008 0 0.888 0.604 1.332 1.812 1.332h0.996l0.36-1.02 1.008-0.168zm-4.26 3.612c0 0.496 0.132 0.876 0.396 1.14 0.272 0.264 0.592 0.396 0.96 0.396 0.376 0 0.696-0.06 0.96-0.18 0.264-0.128 0.456-0.252 0.576-0.372v-2.376h-1.08c-0.568 0-1.012 0.108-1.332 0.324-0.32 0.208-0.48 0.564-0.48 1.068zm-45.739 16.544v-8.568c0.624-0.096 1.58-0.144 2.868-0.144 0.864 0 1.528 0.248 1.992 0.744 0.464 0.488 0.696 1.152 0.696 1.992s-0.28 1.536-0.84 2.088c-0.552 0.552-1.308 0.828-2.268 0.828-0.192 0-0.552-8e-3 -1.08-0.024v3.084h-1.368zm1.368-4.14c0.192 8e-3 0.504 0.012 0.936 0.012 0.656 0 1.12-0.148 1.392-0.444 0.28-0.296 0.42-0.728 0.42-1.296s-0.128-1.004-0.384-1.308-0.68-0.456-1.272-0.456c-0.36 0-0.724 0.012-1.092 0.036v3.456zm6.0851 4.14v-8.568c0.624-0.096 1.58-0.144 2.868-0.144 0.864 0 1.528 0.248 1.992 0.744 0.464 0.488 0.696 1.116 0.696 1.884 0 0.528-0.128 0.996-0.384 1.404-0.256 0.4-0.624 0.704-1.104 0.912l0.804 1.872c0.144 0.328 0.324 0.584 0.54 0.768 0.216 0.176 0.448 0.264 0.696 0.264l-0.192 0.936h-0.288c-0.368 0-0.732-0.096-1.092-0.288-0.352-0.2-0.616-0.496-0.792-0.888l-1.08-2.388c-0.064 8e-3 -0.168 0.012-0.312 0.012h-0.984v3.48h-1.368zm1.368-4.536h2.016c0.112-0.04 0.236-0.136 0.372-0.288 0.24-0.272 0.36-0.664 0.36-1.176 0-1.088-0.512-1.632-1.536-1.632-0.352 0-0.756 0.02-1.212 0.06v3.036zm9.295 4.68c-1.016 0-1.86-0.368-2.532-1.104-0.664-0.744-0.996-1.824-0.996-3.24 0-1.424 0.34-2.544 1.02-3.36s1.7-1.224 3.06-1.224c1.024 0 1.868 0.368 2.532 1.104 0.664 0.728 0.996 1.804 0.996 3.228 0 1.416-0.34 2.536-1.02 3.36s-1.7 1.236-3.06 1.236zm0.228-1.152c0.904 0 1.536-0.292 1.896-0.876 0.368-0.592 0.552-1.456 0.552-2.592s-0.208-1.944-0.624-2.424c-0.408-0.488-0.98-0.732-1.716-0.732-0.92 0-1.56 0.316-1.92 0.948-0.328 0.584-0.492 1.432-0.492 2.544 0 1.104 0.204 1.904 0.612 2.4 0.408 0.488 0.972 0.732 1.692 0.732zm5.8668 1.008v-8.58c0.968-0.088 2.06-0.132 3.276-0.132 1.032 0 1.876 0.356 2.532 1.068 0.664 0.712 0.996 1.776 0.996 3.192 0 1.408-0.34 2.516-1.02 3.324-0.68 0.8-1.72 1.2-3.12 1.2s-2.288-0.024-2.664-0.072zm1.368-1.056c0.48 0.032 1.008 0.048 1.584 0.048 0.904 0 1.536-0.292 1.896-0.876 0.368-0.592 0.552-1.456 0.552-2.592s-0.208-1.944-0.624-2.424c-0.408-0.488-0.98-0.732-1.716-0.732-0.328 0-0.892 0.024-1.692 0.072v6.504zm7.2402-1.548v-6.036h1.368v5.82c0 0.576 0.14 1.036 0.42 1.38 0.288 0.336 0.728 0.504 1.32 0.504 1.216 0 1.824-0.624 1.824-1.872v-5.832h1.368v5.616c0 0.968-0.276 1.74-0.828 2.316-0.552 0.568-1.348 0.852-2.388 0.852s-1.816-0.244-2.328-0.732c-0.504-0.496-0.756-1.168-0.756-2.016zm8.101-1.752c0-1.808 0.584-3.084 1.752-3.828 0.616-0.4 1.372-0.6 2.268-0.6 0.888 0 1.724 0.144 2.508 0.432 0.104 0.04 0.16 0.06 0.168 0.06l-0.348 1.056c-8e-3 0-0.064-0.012-0.168-0.036-0.096-0.032-0.196-0.06-0.3-0.084-0.096-0.032-0.224-0.064-0.384-0.096s-0.312-0.06-0.456-0.084c-0.32-0.064-0.66-0.096-1.02-0.096-0.896 0-1.552 0.252-1.968 0.756-0.408 0.504-0.612 1.352-0.612 2.544 0 1.352 0.236 2.256 0.708 2.712 0.24 0.232 0.504 0.392 0.792 0.48s0.636 0.132 1.044 0.132c0.744 0 1.532-0.148 2.364-0.444l0.348 1.092-0.312 0.096c-0.864 0.272-1.752 0.408-2.664 0.408-1.192 0-2.112-0.38-2.76-1.14-0.64-0.76-0.96-1.88-0.96-3.36zm9.8653 4.356v-7.56h-2.556v-1.08h6.576l-0.168 1.08h-2.484v7.56h-1.368zm5.3005 0v-8.64h1.368v8.64h-1.368zm6.913 0.144c-1.016 0-1.86-0.368-2.532-1.104-0.664-0.744-0.996-1.824-0.996-3.24 0-1.424 0.34-2.544 1.02-3.36s1.7-1.224 3.06-1.224c1.024 0 1.868 0.368 2.532 1.104 0.664 0.728 0.996 1.804 0.996 3.228 0 1.416-0.34 2.536-1.02 3.36s-1.7 1.236-3.06 1.236zm0.228-1.152c0.904 0 1.536-0.292 1.896-0.876 0.368-0.592 0.552-1.456 0.552-2.592s-0.208-1.944-0.624-2.424c-0.408-0.488-0.98-0.732-1.716-0.732-0.92 0-1.56 0.316-1.92 0.948-0.328 0.584-0.492 1.432-0.492 2.544 0 1.104 0.204 1.904 0.612 2.4 0.408 0.488 0.972 0.732 1.692 0.732zm12.383 1.008-0.936 0.108c-0.168 0-0.316-0.1-0.444-0.3l-3.948-6.348 0.18 6.54h-1.368v-8.64l0.936-0.108c0.176 0 0.328 0.1 0.456 0.3l3.972 6.336-0.216-6.528h1.368v8.64zm-54.412 14.144c-1.016 0-1.86-0.368-2.532-1.104-0.664-0.744-0.996-1.824-0.996-3.24 0-1.424 0.34-2.544 1.02-3.36s1.7-1.224 3.06-1.224c1.024 0 1.868 0.368 2.532 1.104 0.664 0.728 0.996 1.804 0.996 3.228 0 1.416-0.34 2.536-1.02 3.36s-1.7 1.236-3.06 1.236zm0.228-1.152c0.904 0 1.536-0.292 1.896-0.876 0.368-0.592 0.552-1.456 0.552-2.592s-0.208-1.944-0.624-2.424c-0.408-0.488-0.98-0.732-1.716-0.732-0.92 0-1.56 0.316-1.92 0.948-0.328 0.584-0.492 1.432-0.492 2.544 0 1.104 0.204 1.904 0.612 2.4 0.408 0.488 0.972 0.732 1.692 0.732zm5.8669 1.008v-8.64h4.884v1.152h-3.516v2.796h3.036l-0.168 1.08h-2.868v3.612h-1.368zm6.7851 0v-8.64h4.884v1.152h-3.516v2.796h3.036l-0.168 1.08h-2.868v3.612h-1.368zm6.7852 0v-8.64h1.368v8.64h-1.368zm3.3849-4.356c0-1.808 0.584-3.084 1.752-3.828 0.616-0.4 1.372-0.6 2.268-0.6 0.888 0 1.724 0.144 2.508 0.432 0.104 0.04 0.16 0.06 0.168 0.06l-0.348 1.056c-8e-3 0-0.064-0.012-0.168-0.036-0.096-0.032-0.196-0.06-0.3-0.084-0.096-0.032-0.224-0.064-0.384-0.096s-0.312-0.06-0.456-0.084c-0.32-0.064-0.66-0.096-1.02-0.096-0.896 0-1.552 0.252-1.968 0.756-0.408 0.504-0.612 1.352-0.612 2.544 0 1.352 0.236 2.256 0.708 2.712 0.24 0.232 0.504 0.392 0.792 0.48s0.636 0.132 1.044 0.132c0.744 0 1.532-0.148 2.364-0.444l0.348 1.092-0.312 0.096c-0.864 0.272-1.752 0.408-2.664 0.408-1.192 0-2.112-0.38-2.76-1.14-0.64-0.76-0.96-1.88-0.96-3.36zm8.5213 4.356v-8.64h5.004v1.116h-3.636v2.616h3.156v1.044h-3.156v2.748h3.876l-0.168 1.116h-5.076z"/>
  <path d="m122.4 473v-9.36h1.482v8.112h3.549l-0.182 1.248h-4.849zm6.219 0v-0.832l1.365-0.26v-6.565l-1.274 0.806-0.559-1.001 1.274-0.806c0.234-0.156 0.438-0.234 0.611-0.234l1.352 0.143v7.657h1.378l-0.182 1.092h-3.965z"/>
  <path d="m118.78 216v-9.36h1.482v8.112h3.549l-0.182 1.248h-4.849zm9.066 0.156c-0.884 0-1.59-0.212-2.119-0.637s-0.793-1.005-0.793-1.742c0-0.745 0.433-1.551 1.3-2.418-0.763-0.468-1.144-1.118-1.144-1.95 0-0.711 0.269-1.283 0.806-1.716 0.537-0.442 1.226-0.663 2.067-0.663s1.512 0.191 2.015 0.572 0.754 0.88 0.754 1.495c0 0.737-0.39 1.469-1.17 2.197 0.884 0.537 1.326 1.283 1.326 2.236 0 0.78-0.286 1.413-0.858 1.898s-1.3 0.728-2.184 0.728zm0.624-5.252c0.199-0.217 0.351-0.39 0.455-0.52 0.277-0.347 0.416-0.711 0.416-1.092s-0.117-0.702-0.351-0.962c-0.225-0.26-0.563-0.39-1.014-0.39s-0.819 0.143-1.105 0.429c-0.277 0.286-0.416 0.628-0.416 1.027 0 0.39 0.199 0.724 0.598 1.001 0.407 0.269 0.88 0.438 1.417 0.507zm-1.183 0.91c-0.225 0.243-0.399 0.442-0.52 0.598-0.321 0.399-0.481 0.819-0.481 1.261 0 0.433 0.13 0.797 0.39 1.092s0.646 0.442 1.157 0.442 0.919-0.16 1.222-0.481c0.312-0.329 0.468-0.715 0.468-1.157s-0.217-0.823-0.65-1.144-0.962-0.524-1.586-0.611z"/>
  <path d="m147.86 216v-9.36h1.482v8.112h3.549l-0.182 1.248h-4.849zm6.22 0v-0.832l1.365-0.26v-6.565l-1.274 0.806-0.559-1.001 1.274-0.806c0.234-0.156 0.437-0.234 0.611-0.234l1.352 0.143v7.657h1.378l-0.182 1.092h-3.965zm6.076 0.156-0.104-1.105c0.59 0 1.101-0.091 1.534-0.273 0.434-0.182 0.767-0.425 1.001-0.728 0.39-0.494 0.642-1.031 0.754-1.612-0.572 0.338-1.174 0.507-1.807 0.507-0.632 0-1.204-0.247-1.716-0.741-0.502-0.503-0.754-1.179-0.754-2.028 0-0.858 0.239-1.595 0.715-2.21 0.486-0.615 1.192-0.923 2.119-0.923 0.928 0 1.656 0.316 2.184 0.949 0.529 0.624 0.793 1.525 0.793 2.704 0 1.751-0.45 3.098-1.352 4.043-0.901 0.945-2.023 1.417-3.367 1.417zm3.016-7.176c-0.104-0.269-0.264-0.477-0.481-0.624-0.216-0.147-0.511-0.221-0.884-0.221-0.372 0-0.689 0.182-0.949 0.546-0.26 0.355-0.39 0.836-0.39 1.443 0 0.598 0.126 1.036 0.377 1.313 0.252 0.277 0.598 0.416 1.04 0.416 0.624 0 1.131-0.165 1.521-0.494 0.018-0.277 0.026-0.546 0.026-0.806s-0.017-0.52-0.052-0.78c-0.034-0.26-0.104-0.524-0.208-0.793z"/>
  <path d="m178.42 216v-9.36h1.482v8.112h3.549l-0.182 1.248h-4.849zm5.881 0v-0.702c0-0.459 0.095-0.893 0.286-1.3 0.19-0.407 0.424-0.75 0.702-1.027 0.286-0.277 0.593-0.555 0.923-0.832 0.338-0.286 0.645-0.542 0.923-0.767 0.286-0.234 0.524-0.498 0.715-0.793 0.19-0.295 0.286-0.598 0.286-0.91 0-0.572-0.139-0.971-0.416-1.196-0.269-0.234-0.594-0.351-0.975-0.351-0.685 0-1.357 0.204-2.015 0.611l-0.429-0.936c0.303-0.225 0.71-0.407 1.222-0.546 0.52-0.147 0.979-0.221 1.378-0.221 0.918 0 1.599 0.26 2.041 0.78 0.45 0.511 0.676 1.127 0.676 1.846 0 0.416-0.13 0.828-0.39 1.235-0.252 0.399-0.564 0.754-0.936 1.066-0.364 0.312-0.737 0.615-1.118 0.91-0.91 0.711-1.387 1.326-1.43 1.846h3.692v1.287h-5.135zm9.593 0.156c-0.798 0-1.469-0.377-2.015-1.131-0.546-0.763-0.819-1.863-0.819-3.302s0.29-2.578 0.871-3.419c0.58-0.849 1.434-1.274 2.561-1.274 0.797 0 1.469 0.381 2.015 1.144 0.546 0.754 0.819 1.85 0.819 3.289s-0.291 2.583-0.871 3.432c-0.581 0.841-1.435 1.261-2.561 1.261zm0.234-1.092c1.196 0 1.794-1.222 1.794-3.666 0-1.153-0.156-1.985-0.468-2.496-0.304-0.52-0.702-0.78-1.196-0.78-1.196 0-1.794 1.222-1.794 3.666 0 1.153 0.151 1.989 0.455 2.509 0.312 0.511 0.715 0.767 1.209 0.767z"/>
  <path d="m212.62 216v-9.36h1.482v8.112h3.549l-0.182 1.248h-4.849zm5.881 0v-0.702c0-0.459 0.095-0.893 0.286-1.3 0.19-0.407 0.424-0.75 0.702-1.027 0.286-0.277 0.593-0.555 0.923-0.832 0.338-0.286 0.645-0.542 0.923-0.767 0.286-0.234 0.524-0.498 0.715-0.793 0.19-0.295 0.286-0.598 0.286-0.91 0-0.572-0.139-0.971-0.416-1.196-0.269-0.234-0.594-0.351-0.975-0.351-0.685 0-1.357 0.204-2.015 0.611l-0.429-0.936c0.303-0.225 0.71-0.407 1.222-0.546 0.52-0.147 0.979-0.221 1.378-0.221 0.918 0 1.599 0.26 2.041 0.78 0.45 0.511 0.676 1.127 0.676 1.846 0 0.416-0.13 0.828-0.39 1.235-0.252 0.399-0.564 0.754-0.936 1.066-0.364 0.312-0.737 0.615-1.118 0.91-0.91 0.711-1.387 1.326-1.43 1.846h3.692v1.287h-5.135zm6.889 0v-0.832l1.365-0.26v-6.565l-1.274 0.806-0.559-1.001 1.274-0.806c0.234-0.156 0.437-0.234 0.611-0.234l1.352 0.143v7.657h1.378l-0.182 1.092h-3.965z"/>
  <path d="m243.44 216v-9.36h1.482v8.112h3.549l-0.182 1.248h-4.849zm5.881 0v-0.702c0-0.459 0.096-0.893 0.286-1.3 0.191-0.407 0.425-0.75 0.702-1.027 0.286-0.277 0.594-0.555 0.923-0.832 0.338-0.286 0.646-0.542 0.923-0.767 0.286-0.234 0.525-0.498 0.715-0.793 0.191-0.295 0.286-0.598 0.286-0.91 0-0.572-0.138-0.971-0.416-1.196-0.268-0.234-0.593-0.351-0.975-0.351-0.684 0-1.356 0.204-2.015 0.611l-0.429-0.936c0.304-0.225 0.711-0.407 1.222-0.546 0.52-0.147 0.98-0.221 1.378-0.221 0.919 0 1.599 0.26 2.041 0.78 0.451 0.511 0.676 1.127 0.676 1.846 0 0.416-0.13 0.828-0.39 1.235-0.251 0.399-0.563 0.754-0.936 1.066-0.364 0.312-0.736 0.615-1.118 0.91-0.91 0.711-1.386 1.326-1.43 1.846h3.692v1.287h-5.135zm6.551 0v-0.702c0-0.459 0.095-0.893 0.286-1.3s0.425-0.75 0.702-1.027c0.286-0.277 0.594-0.555 0.923-0.832 0.338-0.286 0.646-0.542 0.923-0.767 0.286-0.234 0.524-0.498 0.715-0.793s0.286-0.598 0.286-0.91c0-0.572-0.139-0.971-0.416-1.196-0.269-0.234-0.594-0.351-0.975-0.351-0.685 0-1.356 0.204-2.015 0.611l-0.429-0.936c0.303-0.225 0.711-0.407 1.222-0.546 0.52-0.147 0.979-0.221 1.378-0.221 0.919 0 1.599 0.26 2.041 0.78 0.451 0.511 0.676 1.127 0.676 1.846 0 0.416-0.13 0.828-0.39 1.235-0.251 0.399-0.563 0.754-0.936 1.066-0.364 0.312-0.737 0.615-1.118 0.91-0.91 0.711-1.387 1.326-1.43 1.846h3.692v1.287h-5.135z"/>
  <path d="m275.79 216v-9.36h1.482v8.112h3.549l-0.182 1.248h-4.849zm5.881 0v-0.702c0-0.459 0.096-0.893 0.286-1.3 0.191-0.407 0.425-0.75 0.702-1.027 0.286-0.277 0.594-0.555 0.923-0.832 0.338-0.286 0.646-0.542 0.923-0.767 0.286-0.234 0.525-0.498 0.715-0.793 0.191-0.295 0.286-0.598 0.286-0.91 0-0.572-0.138-0.971-0.416-1.196-0.268-0.234-0.593-0.351-0.975-0.351-0.684 0-1.356 0.204-2.015 0.611l-0.429-0.936c0.304-0.225 0.711-0.407 1.222-0.546 0.52-0.147 0.98-0.221 1.378-0.221 0.919 0 1.599 0.26 2.041 0.78 0.451 0.511 0.676 1.127 0.676 1.846 0 0.416-0.13 0.828-0.39 1.235-0.251 0.399-0.563 0.754-0.936 1.066-0.364 0.312-0.736 0.615-1.118 0.91-0.91 0.711-1.386 1.326-1.43 1.846h3.692v1.287h-5.135zm6.408-0.481 0.403-0.936c0.659 0.321 1.296 0.481 1.911 0.481 0.624 0 1.079-0.147 1.365-0.442 0.295-0.303 0.442-0.685 0.442-1.144 0-0.572-0.147-0.971-0.442-1.196-0.147-0.121-0.295-0.221-0.442-0.299-0.139-0.078-0.316-0.13-0.533-0.156-0.373-0.043-0.719-0.065-1.04-0.065l-0.182-1.001c0.875 0 1.521-0.1 1.937-0.299s0.624-0.546 0.624-1.04-0.143-0.832-0.429-1.014c-0.277-0.191-0.615-0.286-1.014-0.286-0.711 0-1.387 0.16-2.028 0.481l-0.403-0.936c0.208-0.156 0.594-0.299 1.157-0.429 0.563-0.139 1.023-0.208 1.378-0.208 0.364 0 0.698 0.039 1.001 0.117s0.594 0.204 0.871 0.377c0.286 0.165 0.516 0.403 0.689 0.715s0.26 0.641 0.26 0.988-0.043 0.637-0.13 0.871-0.186 0.416-0.299 0.546c-0.104 0.13-0.23 0.243-0.377 0.338-0.199 0.139-0.373 0.23-0.52 0.273 0.373 0.147 0.659 0.338 0.858 0.572 0.364 0.425 0.546 0.975 0.546 1.651 0 0.893-0.29 1.564-0.871 2.015-0.581 0.442-1.326 0.663-2.236 0.663-0.901 0-1.733-0.212-2.496-0.637z"/>
  <path d="m307.54 216v-9.36h1.482v8.112h3.549l-0.182 1.248h-4.849zm5.881 0v-0.702c0-0.459 0.096-0.893 0.286-1.3 0.191-0.407 0.425-0.75 0.702-1.027 0.286-0.277 0.594-0.555 0.923-0.832 0.338-0.286 0.646-0.542 0.923-0.767 0.286-0.234 0.525-0.498 0.715-0.793 0.191-0.295 0.286-0.598 0.286-0.91 0-0.572-0.138-0.971-0.416-1.196-0.268-0.234-0.593-0.351-0.975-0.351-0.684 0-1.356 0.204-2.015 0.611l-0.429-0.936c0.304-0.225 0.711-0.407 1.222-0.546 0.52-0.147 0.98-0.221 1.378-0.221 0.919 0 1.599 0.26 2.041 0.78 0.451 0.511 0.676 1.127 0.676 1.846 0 0.416-0.13 0.828-0.39 1.235-0.251 0.399-0.563 0.754-0.936 1.066-0.364 0.312-0.736 0.615-1.118 0.91-0.91 0.711-1.386 1.326-1.43 1.846h3.692v1.287h-5.135zm6.473-2.015-0.013-0.832 3.445-5.746c0.121-0.199 0.29-0.299 0.507-0.299l1.456 0.182v5.603h1.118l-0.182 1.092h-0.936v2.015h-1.391v-2.015h-4.004zm4.043-5.421-2.418 4.329h2.418v-4.329z"/>
  <path d="m355.85 216v-9.36h1.482v8.112h3.549l-0.182 1.248h-4.849zm5.881 0v-0.702c0-0.459 0.096-0.893 0.286-1.3 0.191-0.407 0.425-0.75 0.702-1.027 0.286-0.277 0.594-0.555 0.923-0.832 0.338-0.286 0.646-0.542 0.923-0.767 0.286-0.234 0.525-0.498 0.715-0.793 0.191-0.295 0.286-0.598 0.286-0.91 0-0.572-0.138-0.971-0.416-1.196-0.268-0.234-0.593-0.351-0.975-0.351-0.684 0-1.356 0.204-2.015 0.611l-0.429-0.936c0.304-0.225 0.711-0.407 1.222-0.546 0.52-0.147 0.98-0.221 1.378-0.221 0.919 0 1.599 0.26 2.041 0.78 0.451 0.511 0.676 1.127 0.676 1.846 0 0.416-0.13 0.828-0.39 1.235-0.251 0.399-0.563 0.754-0.936 1.066-0.364 0.312-0.736 0.615-1.118 0.91-0.91 0.711-1.386 1.326-1.43 1.846h3.692v1.287h-5.135zm6.681-0.468 0.325-1.014c0.174 0.078 0.455 0.165 0.845 0.26 0.399 0.087 0.767 0.13 1.105 0.13 1.205 0 1.807-0.559 1.807-1.677 0-0.598-0.143-1.031-0.429-1.3s-0.689-0.403-1.209-0.403c-0.511 0-0.94 0.061-1.287 0.182l-0.754-0.78 0.52-3.744h4.277v1.092h-2.99l-0.273 2.21c0.33-0.035 0.59-0.052 0.78-0.052 0.867 0 1.556 0.247 2.067 0.741 0.52 0.494 0.78 1.192 0.78 2.093 0 0.893-0.286 1.573-0.858 2.041-0.572 0.459-1.347 0.689-2.327 0.689-0.424 0-0.879-0.052-1.365-0.156-0.476-0.104-0.814-0.208-1.014-0.312z"/>
  <path d="m387.61 216v-9.36h1.482v8.112h3.549l-0.182 1.248h-4.849zm5.881 0v-0.702c0-0.459 0.096-0.893 0.286-1.3 0.191-0.407 0.425-0.75 0.702-1.027 0.286-0.277 0.594-0.555 0.923-0.832 0.338-0.286 0.646-0.542 0.923-0.767 0.286-0.234 0.525-0.498 0.715-0.793 0.191-0.295 0.286-0.598 0.286-0.91 0-0.572-0.138-0.971-0.416-1.196-0.268-0.234-0.593-0.351-0.975-0.351-0.684 0-1.356 0.204-2.015 0.611l-0.429-0.936c0.304-0.225 0.711-0.407 1.222-0.546 0.52-0.147 0.98-0.221 1.378-0.221 0.919 0 1.599 0.26 2.041 0.78 0.451 0.511 0.676 1.127 0.676 1.846 0 0.416-0.13 0.828-0.39 1.235-0.251 0.399-0.563 0.754-0.936 1.066-0.364 0.312-0.736 0.615-1.118 0.91-0.91 0.711-1.386 1.326-1.43 1.846h3.692v1.287h-5.135zm8.358-5.304c0.598-0.338 1.213-0.507 1.846-0.507s1.209 0.256 1.729 0.767c0.52 0.503 0.78 1.187 0.78 2.054 0 0.858-0.251 1.599-0.754 2.223-0.494 0.615-1.218 0.923-2.171 0.923s-1.699-0.312-2.236-0.936c-0.529-0.633-0.793-1.543-0.793-2.73 0-0.919 0.126-1.733 0.377-2.444 0.26-0.711 0.611-1.283 1.053-1.716 0.901-0.867 2.015-1.3 3.341-1.3l0.104 1.105c-0.503 0-0.953 0.069-1.352 0.208s-0.711 0.303-0.936 0.494c-0.217 0.182-0.399 0.403-0.546 0.663-0.234 0.399-0.381 0.797-0.442 1.196zm0.156 3.523c0.104 0.269 0.269 0.477 0.494 0.624s0.529 0.221 0.91 0.221c0.39 0 0.719-0.182 0.988-0.546s0.403-0.854 0.403-1.469-0.134-1.062-0.403-1.339c-0.26-0.286-0.615-0.429-1.066-0.429-0.65 0-1.17 0.165-1.56 0.494-0.026 0.217-0.039 0.477-0.039 0.78s0.017 0.589 0.052 0.858c0.043 0.26 0.117 0.529 0.221 0.806z"/>
  <path d="m419.53 216v-9.36h1.482v8.112h3.549l-0.182 1.248h-4.849zm5.881 0v-0.702c0-0.459 0.095-0.893 0.286-1.3s0.425-0.75 0.702-1.027c0.286-0.277 0.594-0.555 0.923-0.832 0.338-0.286 0.646-0.542 0.923-0.767 0.286-0.234 0.524-0.498 0.715-0.793s0.286-0.598 0.286-0.91c0-0.572-0.139-0.971-0.416-1.196-0.269-0.234-0.594-0.351-0.975-0.351-0.685 0-1.356 0.204-2.015 0.611l-0.429-0.936c0.303-0.225 0.711-0.407 1.222-0.546 0.52-0.147 0.979-0.221 1.378-0.221 0.919 0 1.599 0.26 2.041 0.78 0.451 0.511 0.676 1.127 0.676 1.846 0 0.416-0.13 0.828-0.39 1.235-0.251 0.399-0.563 0.754-0.936 1.066-0.364 0.312-0.737 0.615-1.118 0.91-0.91 0.711-1.387 1.326-1.43 1.846h3.692v1.287h-5.135zm7.084 0c0-0.607 0.117-1.231 0.351-1.872s0.52-1.222 0.858-1.742 0.676-1.018 1.014-1.495c0.806-1.135 1.209-1.963 1.209-2.483h-3.835v-1.222h5.33v0.702c0 0.901-0.403 1.941-1.209 3.12-0.338 0.494-0.676 0.997-1.014 1.508s-0.624 1.075-0.858 1.69c-0.234 0.607-0.351 1.205-0.351 1.794h-1.495z"/>
  <path d="m451.51 216v-9.36h1.482v8.112h3.549l-0.182 1.248h-4.849zm5.881 0v-0.702c0-0.459 0.095-0.893 0.286-1.3 0.19-0.407 0.424-0.75 0.702-1.027 0.286-0.277 0.593-0.555 0.923-0.832 0.338-0.286 0.645-0.542 0.923-0.767 0.286-0.234 0.524-0.498 0.715-0.793 0.19-0.295 0.286-0.598 0.286-0.91 0-0.572-0.139-0.971-0.416-1.196-0.269-0.234-0.594-0.351-0.975-0.351-0.685 0-1.357 0.204-2.015 0.611l-0.429-0.936c0.303-0.225 0.71-0.407 1.222-0.546 0.52-0.147 0.979-0.221 1.378-0.221 0.918 0 1.599 0.26 2.041 0.78 0.45 0.511 0.676 1.127 0.676 1.846 0 0.416-0.13 0.828-0.39 1.235-0.252 0.399-0.564 0.754-0.936 1.066-0.364 0.312-0.737 0.615-1.118 0.91-0.91 0.711-1.387 1.326-1.43 1.846h3.692v1.287h-5.135zm9.735 0.156c-0.884 0-1.59-0.212-2.119-0.637-0.528-0.425-0.793-1.005-0.793-1.742 0-0.745 0.434-1.551 1.3-2.418-0.762-0.468-1.144-1.118-1.144-1.95 0-0.711 0.269-1.283 0.806-1.716 0.538-0.442 1.227-0.663 2.067-0.663 0.841 0 1.513 0.191 2.015 0.572 0.503 0.381 0.754 0.88 0.754 1.495 0 0.737-0.39 1.469-1.17 2.197 0.884 0.537 1.326 1.283 1.326 2.236 0 0.78-0.286 1.413-0.858 1.898s-1.3 0.728-2.184 0.728zm0.624-5.252c0.2-0.217 0.351-0.39 0.455-0.52 0.278-0.347 0.416-0.711 0.416-1.092s-0.117-0.702-0.351-0.962c-0.225-0.26-0.563-0.39-1.014-0.39-0.45 0-0.819 0.143-1.105 0.429-0.277 0.286-0.416 0.628-0.416 1.027 0 0.39 0.2 0.724 0.598 1.001 0.408 0.269 0.88 0.438 1.417 0.507zm-1.183 0.91c-0.225 0.243-0.398 0.442-0.52 0.598-0.32 0.399-0.481 0.819-0.481 1.261 0 0.433 0.13 0.797 0.39 1.092s0.646 0.442 1.157 0.442c0.512 0 0.919-0.16 1.222-0.481 0.312-0.329 0.468-0.715 0.468-1.157s-0.216-0.823-0.65-1.144c-0.433-0.321-0.962-0.524-1.586-0.611z"/>
  <path d="m483.68 216v-9.36h1.482v8.112h3.549l-0.182 1.248h-4.849zm5.881 0v-0.702c0-0.459 0.095-0.893 0.286-1.3s0.425-0.75 0.702-1.027c0.286-0.277 0.594-0.555 0.923-0.832 0.338-0.286 0.646-0.542 0.923-0.767 0.286-0.234 0.524-0.498 0.715-0.793s0.286-0.598 0.286-0.91c0-0.572-0.139-0.971-0.416-1.196-0.269-0.234-0.594-0.351-0.975-0.351-0.685 0-1.356 0.204-2.015 0.611l-0.429-0.936c0.303-0.225 0.711-0.407 1.222-0.546 0.52-0.147 0.979-0.221 1.378-0.221 0.919 0 1.599 0.26 2.041 0.78 0.451 0.511 0.676 1.127 0.676 1.846 0 0.416-0.13 0.828-0.39 1.235-0.251 0.399-0.563 0.754-0.936 1.066-0.364 0.312-0.737 0.615-1.118 0.91-0.91 0.711-1.387 1.326-1.43 1.846h3.692v1.287h-5.135zm7.786 0.156-0.104-1.105c0.589 0 1.1-0.091 1.534-0.273 0.433-0.182 0.767-0.425 1.001-0.728 0.39-0.494 0.641-1.031 0.754-1.612-0.572 0.338-1.175 0.507-1.807 0.507-0.633 0-1.205-0.247-1.716-0.741-0.503-0.503-0.754-1.179-0.754-2.028 0-0.858 0.238-1.595 0.715-2.21 0.485-0.615 1.191-0.923 2.119-0.923 0.927 0 1.655 0.316 2.184 0.949 0.528 0.624 0.793 1.525 0.793 2.704 0 1.751-0.451 3.098-1.352 4.043-0.902 0.945-2.024 1.417-3.367 1.417zm3.016-7.176c-0.104-0.269-0.265-0.477-0.481-0.624-0.217-0.147-0.512-0.221-0.884-0.221-0.373 0-0.689 0.182-0.949 0.546-0.26 0.355-0.39 0.836-0.39 1.443 0 0.598 0.125 1.036 0.377 1.313 0.251 0.277 0.598 0.416 1.04 0.416 0.624 0 1.131-0.165 1.521-0.494 0.017-0.277 0.026-0.546 0.026-0.806s-0.018-0.52-0.052-0.78c-0.035-0.26-0.104-0.524-0.208-0.793z"/>
  <path d="m514.77 216v-9.36h1.482v8.112h3.549l-0.182 1.248h-4.849zm5.738-0.481 0.403-0.936c0.658 0.321 1.295 0.481 1.911 0.481 0.624 0 1.079-0.147 1.365-0.442 0.294-0.303 0.442-0.685 0.442-1.144 0-0.572-0.148-0.971-0.442-1.196-0.148-0.121-0.295-0.221-0.442-0.299-0.139-0.078-0.317-0.13-0.533-0.156-0.373-0.043-0.72-0.065-1.04-0.065l-0.182-1.001c0.875 0 1.521-0.1 1.937-0.299s0.624-0.546 0.624-1.04-0.143-0.832-0.429-1.014c-0.278-0.191-0.616-0.286-1.014-0.286-0.711 0-1.387 0.16-2.028 0.481l-0.403-0.936c0.208-0.156 0.593-0.299 1.157-0.429 0.563-0.139 1.022-0.208 1.378-0.208 0.364 0 0.697 0.039 1.001 0.117 0.303 0.078 0.593 0.204 0.871 0.377 0.286 0.165 0.515 0.403 0.689 0.715 0.173 0.312 0.26 0.641 0.26 0.988s-0.044 0.637-0.13 0.871c-0.087 0.234-0.187 0.416-0.299 0.546-0.104 0.13-0.23 0.243-0.377 0.338-0.2 0.139-0.373 0.23-0.52 0.273 0.372 0.147 0.658 0.338 0.858 0.572 0.364 0.425 0.546 0.975 0.546 1.651 0 0.893-0.291 1.564-0.871 2.015-0.581 0.442-1.326 0.663-2.236 0.663-0.902 0-1.734-0.212-2.496-0.637zm10.028 0.637c-0.798 0-1.469-0.377-2.015-1.131-0.546-0.763-0.819-1.863-0.819-3.302s0.29-2.578 0.871-3.419c0.58-0.849 1.434-1.274 2.561-1.274 0.797 0 1.469 0.381 2.015 1.144 0.546 0.754 0.819 1.85 0.819 3.289s-0.291 2.583-0.871 3.432c-0.581 0.841-1.435 1.261-2.561 1.261zm0.234-1.092c1.196 0 1.794-1.222 1.794-3.666 0-1.153-0.156-1.985-0.468-2.496-0.304-0.52-0.702-0.78-1.196-0.78-1.196 0-1.794 1.222-1.794 3.666 0 1.153 0.151 1.989 0.455 2.509 0.312 0.511 0.715 0.767 1.209 0.767z"/>
  <path d="m564.48 216v-9.36h1.482v8.112h3.549l-0.182 1.248h-4.849zm5.738-0.481 0.403-0.936c0.658 0.321 1.295 0.481 1.911 0.481 0.624 0 1.079-0.147 1.365-0.442 0.294-0.303 0.442-0.685 0.442-1.144 0-0.572-0.148-0.971-0.442-1.196-0.148-0.121-0.295-0.221-0.442-0.299-0.139-0.078-0.317-0.13-0.533-0.156-0.373-0.043-0.72-0.065-1.04-0.065l-0.182-1.001c0.875 0 1.521-0.1 1.937-0.299s0.624-0.546 0.624-1.04-0.143-0.832-0.429-1.014c-0.278-0.191-0.616-0.286-1.014-0.286-0.711 0-1.387 0.16-2.028 0.481l-0.403-0.936c0.208-0.156 0.593-0.299 1.157-0.429 0.563-0.139 1.022-0.208 1.378-0.208 0.364 0 0.697 0.039 1.001 0.117 0.303 0.078 0.593 0.204 0.871 0.377 0.286 0.165 0.515 0.403 0.689 0.715 0.173 0.312 0.26 0.641 0.26 0.988s-0.044 0.637-0.13 0.871c-0.087 0.234-0.187 0.416-0.299 0.546-0.104 0.13-0.23 0.243-0.377 0.338-0.2 0.139-0.373 0.23-0.52 0.273 0.372 0.147 0.658 0.338 0.858 0.572 0.364 0.425 0.546 0.975 0.546 1.651 0 0.893-0.291 1.564-0.871 2.015-0.581 0.442-1.326 0.663-2.236 0.663-0.902 0-1.734-0.212-2.496-0.637zm7.324 0.481v-0.832l1.365-0.26v-6.565l-1.274 0.806-0.559-1.001 1.274-0.806c0.234-0.156 0.437-0.234 0.611-0.234l1.352 0.143v7.657h1.378l-0.182 1.092h-3.965z"/>
  <path d="m595.79 216v-9.36h1.482v8.112h3.549l-0.182 1.248h-4.849zm5.738-0.481 0.403-0.936c0.659 0.321 1.296 0.481 1.911 0.481 0.624 0 1.079-0.147 1.365-0.442 0.295-0.303 0.442-0.685 0.442-1.144 0-0.572-0.147-0.971-0.442-1.196-0.147-0.121-0.294-0.221-0.442-0.299-0.138-0.078-0.316-0.13-0.533-0.156-0.372-0.043-0.719-0.065-1.04-0.065l-0.182-1.001c0.876 0 1.521-0.1 1.937-0.299s0.624-0.546 0.624-1.04-0.143-0.832-0.429-1.014c-0.277-0.191-0.615-0.286-1.014-0.286-0.71 0-1.386 0.16-2.028 0.481l-0.403-0.936c0.208-0.156 0.594-0.299 1.157-0.429 0.564-0.139 1.023-0.208 1.378-0.208 0.364 0 0.698 0.039 1.001 0.117 0.304 0.078 0.594 0.204 0.871 0.377 0.286 0.165 0.516 0.403 0.689 0.715 0.174 0.312 0.26 0.641 0.26 0.988s-0.043 0.637-0.13 0.871c-0.086 0.234-0.186 0.416-0.299 0.546-0.104 0.13-0.229 0.243-0.377 0.338-0.199 0.139-0.372 0.23-0.52 0.273 0.373 0.147 0.659 0.338 0.858 0.572 0.364 0.425 0.546 0.975 0.546 1.651 0 0.893-0.29 1.564-0.871 2.015-0.58 0.442-1.326 0.663-2.236 0.663-0.901 0-1.733-0.212-2.496-0.637zm6.986 0.481v-0.702c0-0.459 0.095-0.893 0.286-1.3s0.425-0.75 0.702-1.027c0.286-0.277 0.594-0.555 0.923-0.832 0.338-0.286 0.646-0.542 0.923-0.767 0.286-0.234 0.524-0.498 0.715-0.793s0.286-0.598 0.286-0.91c0-0.572-0.139-0.971-0.416-1.196-0.269-0.234-0.594-0.351-0.975-0.351-0.685 0-1.356 0.204-2.015 0.611l-0.429-0.936c0.303-0.225 0.711-0.407 1.222-0.546 0.52-0.147 0.979-0.221 1.378-0.221 0.919 0 1.599 0.26 2.041 0.78 0.451 0.511 0.676 1.127 0.676 1.846 0 0.416-0.13 0.828-0.39 1.235-0.251 0.399-0.563 0.754-0.936 1.066-0.364 0.312-0.737 0.615-1.118 0.91-0.91 0.711-1.387 1.326-1.43 1.846h3.692v1.287h-5.135z"/>
  <path d="m627.65 216v-9.36h1.482v8.112h3.549l-0.182 1.248h-4.849zm5.738-0.481 0.403-0.936c0.659 0.321 1.296 0.481 1.911 0.481 0.624 0 1.079-0.147 1.365-0.442 0.295-0.303 0.442-0.685 0.442-1.144 0-0.572-0.147-0.971-0.442-1.196-0.147-0.121-0.294-0.221-0.442-0.299-0.138-0.078-0.316-0.13-0.533-0.156-0.372-0.043-0.719-0.065-1.04-0.065l-0.182-1.001c0.876 0 1.521-0.1 1.937-0.299s0.624-0.546 0.624-1.04-0.143-0.832-0.429-1.014c-0.277-0.191-0.615-0.286-1.014-0.286-0.71 0-1.386 0.16-2.028 0.481l-0.403-0.936c0.208-0.156 0.594-0.299 1.157-0.429 0.564-0.139 1.023-0.208 1.378-0.208 0.364 0 0.698 0.039 1.001 0.117 0.304 0.078 0.594 0.204 0.871 0.377 0.286 0.165 0.516 0.403 0.689 0.715 0.174 0.312 0.26 0.641 0.26 0.988s-0.043 0.637-0.13 0.871c-0.086 0.234-0.186 0.416-0.299 0.546-0.104 0.13-0.229 0.243-0.377 0.338-0.199 0.139-0.372 0.23-0.52 0.273 0.373 0.147 0.659 0.338 0.858 0.572 0.364 0.425 0.546 0.975 0.546 1.651 0 0.893-0.29 1.564-0.871 2.015-0.58 0.442-1.326 0.663-2.236 0.663-0.901 0-1.733-0.212-2.496-0.637zm6.843 0 0.403-0.936c0.659 0.321 1.296 0.481 1.911 0.481 0.624 0 1.079-0.147 1.365-0.442 0.295-0.303 0.442-0.685 0.442-1.144 0-0.572-0.147-0.971-0.442-1.196-0.147-0.121-0.295-0.221-0.442-0.299-0.139-0.078-0.316-0.13-0.533-0.156-0.373-0.043-0.719-0.065-1.04-0.065l-0.182-1.001c0.875 0 1.521-0.1 1.937-0.299s0.624-0.546 0.624-1.04-0.143-0.832-0.429-1.014c-0.277-0.191-0.615-0.286-1.014-0.286-0.711 0-1.387 0.16-2.028 0.481l-0.403-0.936c0.208-0.156 0.594-0.299 1.157-0.429 0.563-0.139 1.023-0.208 1.378-0.208 0.364 0 0.698 0.039 1.001 0.117s0.594 0.204 0.871 0.377c0.286 0.165 0.516 0.403 0.689 0.715s0.26 0.641 0.26 0.988-0.043 0.637-0.13 0.871-0.186 0.416-0.299 0.546c-0.104 0.13-0.23 0.243-0.377 0.338-0.199 0.139-0.373 0.23-0.52 0.273 0.373 0.147 0.659 0.338 0.858 0.572 0.364 0.425 0.546 0.975 0.546 1.651 0 0.893-0.29 1.564-0.871 2.015-0.581 0.442-1.326 0.663-2.236 0.663-0.901 0-1.733-0.212-2.496-0.637z"/>
  <path d="m658.89 216v-9.36h1.482v8.112h3.549l-0.182 1.248h-4.849zm5.738-0.481 0.403-0.936c0.659 0.321 1.296 0.481 1.911 0.481 0.624 0 1.079-0.147 1.365-0.442 0.295-0.303 0.442-0.685 0.442-1.144 0-0.572-0.147-0.971-0.442-1.196-0.147-0.121-0.294-0.221-0.442-0.299-0.138-0.078-0.316-0.13-0.533-0.156-0.372-0.043-0.719-0.065-1.04-0.065l-0.182-1.001c0.876 0 1.521-0.1 1.937-0.299s0.624-0.546 0.624-1.04-0.143-0.832-0.429-1.014c-0.277-0.191-0.615-0.286-1.014-0.286-0.71 0-1.386 0.16-2.028 0.481l-0.403-0.936c0.208-0.156 0.594-0.299 1.157-0.429 0.564-0.139 1.023-0.208 1.378-0.208 0.364 0 0.698 0.039 1.001 0.117 0.304 0.078 0.594 0.204 0.871 0.377 0.286 0.165 0.516 0.403 0.689 0.715 0.174 0.312 0.26 0.641 0.26 0.988s-0.043 0.637-0.13 0.871c-0.086 0.234-0.186 0.416-0.299 0.546-0.104 0.13-0.229 0.243-0.377 0.338-0.199 0.139-0.372 0.23-0.52 0.273 0.373 0.147 0.659 0.338 0.858 0.572 0.364 0.425 0.546 0.975 0.546 1.651 0 0.893-0.29 1.564-0.871 2.015-0.58 0.442-1.326 0.663-2.236 0.663-0.901 0-1.733-0.212-2.496-0.637zm6.908-1.534-0.013-0.832 3.445-5.746c0.121-0.199 0.29-0.299 0.507-0.299l1.456 0.182v5.603h1.118l-0.182 1.092h-0.936v2.015h-1.391v-2.015h-4.004zm4.043-5.421-2.418 4.329h2.418v-4.329z"/>
  <path d="m698.7 216v-9.36h1.482v8.112h3.549l-0.182 1.248h-4.849zm5.738-0.481 0.403-0.936c0.659 0.321 1.296 0.481 1.911 0.481 0.624 0 1.079-0.147 1.365-0.442 0.295-0.303 0.442-0.685 0.442-1.144 0-0.572-0.147-0.971-0.442-1.196-0.147-0.121-0.294-0.221-0.442-0.299-0.138-0.078-0.316-0.13-0.533-0.156-0.372-0.043-0.719-0.065-1.04-0.065l-0.182-1.001c0.876 0 1.521-0.1 1.937-0.299s0.624-0.546 0.624-1.04-0.143-0.832-0.429-1.014c-0.277-0.191-0.615-0.286-1.014-0.286-0.71 0-1.386 0.16-2.028 0.481l-0.403-0.936c0.208-0.156 0.594-0.299 1.157-0.429 0.564-0.139 1.023-0.208 1.378-0.208 0.364 0 0.698 0.039 1.001 0.117 0.304 0.078 0.594 0.204 0.871 0.377 0.286 0.165 0.516 0.403 0.689 0.715 0.174 0.312 0.26 0.641 0.26 0.988s-0.043 0.637-0.13 0.871c-0.086 0.234-0.186 0.416-0.299 0.546-0.104 0.13-0.229 0.243-0.377 0.338-0.199 0.139-0.372 0.23-0.52 0.273 0.373 0.147 0.659 0.338 0.858 0.572 0.364 0.425 0.546 0.975 0.546 1.651 0 0.893-0.29 1.564-0.871 2.015-0.58 0.442-1.326 0.663-2.236 0.663-0.901 0-1.733-0.212-2.496-0.637zm7.116 0.013 0.325-1.014c0.174 0.078 0.455 0.165 0.845 0.26 0.399 0.087 0.767 0.13 1.105 0.13 1.205 0 1.807-0.559 1.807-1.677 0-0.598-0.143-1.031-0.429-1.3s-0.689-0.403-1.209-0.403c-0.511 0-0.94 0.061-1.287 0.182l-0.754-0.78 0.52-3.744h4.277v1.092h-2.99l-0.273 2.21c0.33-0.035 0.59-0.052 0.78-0.052 0.867 0 1.556 0.247 2.067 0.741 0.52 0.494 0.78 1.192 0.78 2.093 0 0.893-0.286 1.573-0.858 2.041-0.572 0.459-1.347 0.689-2.327 0.689-0.424 0-0.879-0.052-1.365-0.156-0.476-0.104-0.814-0.208-1.014-0.312z"/>
  <path d="m159.71 473v-9.36h1.482v8.112h3.549l-0.182 1.248h-4.849zm5.881 0v-0.702c0-0.459 0.095-0.893 0.286-1.3 0.19-0.407 0.424-0.75 0.702-1.027 0.286-0.277 0.593-0.555 0.923-0.832 0.338-0.286 0.645-0.542 0.923-0.767 0.286-0.234 0.524-0.498 0.715-0.793 0.19-0.295 0.286-0.598 0.286-0.91 0-0.572-0.139-0.971-0.416-1.196-0.269-0.234-0.594-0.351-0.975-0.351-0.685 0-1.357 0.204-2.015 0.611l-0.429-0.936c0.303-0.225 0.71-0.407 1.222-0.546 0.52-0.147 0.979-0.221 1.378-0.221 0.918 0 1.599 0.26 2.041 0.78 0.45 0.511 0.676 1.127 0.676 1.846 0 0.416-0.13 0.828-0.39 1.235-0.252 0.399-0.564 0.754-0.936 1.066-0.364 0.312-0.737 0.615-1.118 0.91-0.91 0.711-1.387 1.326-1.43 1.846h3.692v1.287h-5.135z"/>
  <path d="m198.57 473v-9.36h1.482v8.112h3.549l-0.182 1.248h-4.849zm5.738-0.481 0.403-0.936c0.658 0.321 1.295 0.481 1.911 0.481 0.624 0 1.079-0.147 1.365-0.442 0.294-0.303 0.442-0.685 0.442-1.144 0-0.572-0.148-0.971-0.442-1.196-0.148-0.121-0.295-0.221-0.442-0.299-0.139-0.078-0.317-0.13-0.533-0.156-0.373-0.043-0.72-0.065-1.04-0.065l-0.182-1.001c0.875 0 1.521-0.1 1.937-0.299s0.624-0.546 0.624-1.04-0.143-0.832-0.429-1.014c-0.278-0.191-0.616-0.286-1.014-0.286-0.711 0-1.387 0.16-2.028 0.481l-0.403-0.936c0.208-0.156 0.593-0.299 1.157-0.429 0.563-0.139 1.022-0.208 1.378-0.208 0.364 0 0.697 0.039 1.001 0.117 0.303 0.078 0.593 0.204 0.871 0.377 0.286 0.165 0.515 0.403 0.689 0.715 0.173 0.312 0.26 0.641 0.26 0.988s-0.044 0.637-0.13 0.871c-0.087 0.234-0.187 0.416-0.299 0.546-0.104 0.13-0.23 0.243-0.377 0.338-0.2 0.139-0.373 0.23-0.52 0.273 0.372 0.147 0.658 0.338 0.858 0.572 0.364 0.425 0.546 0.975 0.546 1.651 0 0.893-0.291 1.564-0.871 2.015-0.581 0.442-1.326 0.663-2.236 0.663-0.902 0-1.734-0.212-2.496-0.637z"/>
  <path d="m236.31 473v-9.36h1.482v8.112h3.549l-0.182 1.248h-4.849zm5.803-2.015-0.013-0.832 3.445-5.746c0.121-0.199 0.29-0.299 0.507-0.299l1.456 0.182v5.603h1.118l-0.182 1.092h-0.936v2.015h-1.391v-2.015h-4.004zm4.043-5.421-2.418 4.329h2.418v-4.329z"/>
  <path d="m273.62 473v-9.36h1.482v8.112h3.549l-0.182 1.248h-4.849zm6.011-0.468 0.325-1.014c0.173 0.078 0.455 0.165 0.845 0.26 0.398 0.087 0.767 0.13 1.105 0.13 1.204 0 1.807-0.559 1.807-1.677 0-0.598-0.143-1.031-0.429-1.3s-0.689-0.403-1.209-0.403c-0.512 0-0.941 0.061-1.287 0.182l-0.754-0.78 0.52-3.744h4.277v1.092h-2.99l-0.273 2.21c0.329-0.035 0.589-0.052 0.78-0.052 0.866 0 1.555 0.247 2.067 0.741 0.52 0.494 0.78 1.192 0.78 2.093 0 0.893-0.286 1.573-0.858 2.041-0.572 0.459-1.348 0.689-2.327 0.689-0.425 0-0.88-0.052-1.365-0.156-0.477-0.104-0.815-0.208-1.014-0.312z"/>
  <path d="m311.38 473v-9.36h1.482v8.112h3.549l-0.182 1.248h-4.849zm7.689-5.304c0.598-0.338 1.213-0.507 1.846-0.507 0.632 0 1.209 0.256 1.729 0.767 0.52 0.503 0.78 1.187 0.78 2.054 0 0.858-0.252 1.599-0.754 2.223-0.494 0.615-1.218 0.923-2.171 0.923-0.954 0-1.699-0.312-2.236-0.936-0.529-0.633-0.793-1.543-0.793-2.73 0-0.919 0.125-1.733 0.377-2.444 0.26-0.711 0.611-1.283 1.053-1.716 0.901-0.867 2.015-1.3 3.341-1.3l0.104 1.105c-0.503 0-0.954 0.069-1.352 0.208-0.399 0.139-0.711 0.303-0.936 0.494-0.217 0.182-0.399 0.403-0.546 0.663-0.234 0.399-0.382 0.797-0.442 1.196zm0.156 3.523c0.104 0.269 0.268 0.477 0.494 0.624 0.225 0.147 0.528 0.221 0.91 0.221 0.39 0 0.719-0.182 0.988-0.546 0.268-0.364 0.403-0.854 0.403-1.469s-0.135-1.062-0.403-1.339c-0.26-0.286-0.616-0.429-1.066-0.429-0.65 0-1.17 0.165-1.56 0.494-0.026 0.217-0.039 0.477-0.039 0.78s0.017 0.589 0.052 0.858c0.043 0.26 0.117 0.529 0.221 0.806z"/>
  <path d="m350.3 473v-9.36h1.482v8.112h3.549l-0.182 1.248h-4.849zm6.415 0c0-0.607 0.117-1.231 0.351-1.872s0.52-1.222 0.858-1.742 0.676-1.018 1.014-1.495c0.806-1.135 1.209-1.963 1.209-2.483h-3.835v-1.222h5.33v0.702c0 0.901-0.403 1.941-1.209 3.12-0.338 0.494-0.676 0.997-1.014 1.508s-0.624 1.075-0.858 1.69c-0.234 0.607-0.351 1.205-0.351 1.794h-1.495z"/>
  <path d="m439.95 473v-9.36h1.482v8.112h3.549l-0.182 1.248h-4.849zm7.116 0.156-0.104-1.105c0.59 0 1.101-0.091 1.534-0.273 0.434-0.182 0.767-0.425 1.001-0.728 0.39-0.494 0.642-1.031 0.754-1.612-0.572 0.338-1.174 0.507-1.807 0.507-0.632 0-1.204-0.247-1.716-0.741-0.502-0.503-0.754-1.179-0.754-2.028 0-0.858 0.239-1.595 0.715-2.21 0.486-0.615 1.192-0.923 2.119-0.923 0.928 0 1.656 0.316 2.184 0.949 0.529 0.624 0.793 1.525 0.793 2.704 0 1.751-0.45 3.098-1.352 4.043-0.901 0.945-2.023 1.417-3.367 1.417zm3.016-7.176c-0.104-0.269-0.264-0.477-0.481-0.624-0.216-0.147-0.511-0.221-0.884-0.221-0.372 0-0.689 0.182-0.949 0.546-0.26 0.355-0.39 0.836-0.39 1.443 0 0.598 0.126 1.036 0.377 1.313 0.252 0.277 0.598 0.416 1.04 0.416 0.624 0 1.131-0.165 1.521-0.494 0.018-0.277 0.026-0.546 0.026-0.806s-0.017-0.52-0.052-0.78c-0.034-0.26-0.104-0.524-0.208-0.793z"/>
  <path d="m473.1 473v-9.36h1.482v8.112h3.549l-0.182 1.248h-4.849zm6.219 0v-0.832l1.365-0.26v-6.565l-1.274 0.806-0.559-1.001 1.274-0.806c0.234-0.156 0.438-0.234 0.611-0.234l1.352 0.143v7.657h1.378l-0.182 1.092h-3.965zm7.884 0.156c-0.797 0-1.469-0.377-2.015-1.131-0.546-0.763-0.819-1.863-0.819-3.302s0.29-2.578 0.871-3.419c0.581-0.849 1.434-1.274 2.561-1.274 0.797 0 1.469 0.381 2.015 1.144 0.546 0.754 0.819 1.85 0.819 3.289s-0.29 2.583-0.871 3.432c-0.581 0.841-1.434 1.261-2.561 1.261zm0.234-1.092c1.196 0 1.794-1.222 1.794-3.666 0-1.153-0.156-1.985-0.468-2.496-0.303-0.52-0.702-0.78-1.196-0.78-1.196 0-1.794 1.222-1.794 3.666 0 1.153 0.152 1.989 0.455 2.509 0.312 0.511 0.715 0.767 1.209 0.767z"/>
  <path d="m510.81 473v-9.36h1.482v8.112h3.549l-0.182 1.248h-4.849zm6.219 0v-0.832l1.365-0.26v-6.565l-1.274 0.806-0.559-1.001 1.274-0.806c0.234-0.156 0.438-0.234 0.611-0.234l1.352 0.143v7.657h1.378l-0.182 1.092h-3.965zm5.18 0v-0.832l1.365-0.26v-6.565l-1.274 0.806-0.559-1.001 1.274-0.806c0.234-0.156 0.438-0.234 0.611-0.234l1.352 0.143v7.657h1.378l-0.182 1.092h-3.965z"/>
  <path d="m546.12 473v-9.36h1.482v8.112h3.549l-0.182 1.248h-4.849zm6.219 0v-0.832l1.365-0.26v-6.565l-1.274 0.806-0.559-1.001 1.274-0.806c0.234-0.156 0.437-0.234 0.611-0.234l1.352 0.143v7.657h1.378l-0.182 1.092h-3.965zm4.841 0v-0.702c0-0.459 0.096-0.893 0.286-1.3 0.191-0.407 0.425-0.75 0.702-1.027 0.286-0.277 0.594-0.555 0.923-0.832 0.338-0.286 0.646-0.542 0.923-0.767 0.286-0.234 0.525-0.498 0.715-0.793 0.191-0.295 0.286-0.598 0.286-0.91 0-0.572-0.138-0.971-0.416-1.196-0.268-0.234-0.593-0.351-0.975-0.351-0.684 0-1.356 0.204-2.015 0.611l-0.429-0.936c0.304-0.225 0.711-0.407 1.222-0.546 0.52-0.147 0.98-0.221 1.378-0.221 0.919 0 1.599 0.26 2.041 0.78 0.451 0.511 0.676 1.127 0.676 1.846 0 0.416-0.13 0.828-0.39 1.235-0.251 0.399-0.563 0.754-0.936 1.066-0.364 0.312-0.736 0.615-1.118 0.91-0.91 0.711-1.386 1.326-1.43 1.846h3.692v1.287h-5.135z"/>
  <path d="m582.48 473v-9.36h1.482v8.112h3.549l-0.182 1.248h-4.849zm6.219 0v-0.832l1.365-0.26v-6.565l-1.274 0.806-0.559-1.001 1.274-0.806c0.234-0.156 0.437-0.234 0.611-0.234l1.352 0.143v7.657h1.378l-0.182 1.092h-3.965zm4.698-0.481 0.403-0.936c0.659 0.321 1.296 0.481 1.911 0.481 0.624 0 1.079-0.147 1.365-0.442 0.295-0.303 0.442-0.685 0.442-1.144 0-0.572-0.147-0.971-0.442-1.196-0.147-0.121-0.294-0.221-0.442-0.299-0.138-0.078-0.316-0.13-0.533-0.156-0.372-0.043-0.719-0.065-1.04-0.065l-0.182-1.001c0.876 0 1.521-0.1 1.937-0.299s0.624-0.546 0.624-1.04-0.143-0.832-0.429-1.014c-0.277-0.191-0.615-0.286-1.014-0.286-0.71 0-1.386 0.16-2.028 0.481l-0.403-0.936c0.208-0.156 0.594-0.299 1.157-0.429 0.564-0.139 1.023-0.208 1.378-0.208 0.364 0 0.698 0.039 1.001 0.117 0.304 0.078 0.594 0.204 0.871 0.377 0.286 0.165 0.516 0.403 0.689 0.715 0.174 0.312 0.26 0.641 0.26 0.988s-0.043 0.637-0.13 0.871c-0.086 0.234-0.186 0.416-0.299 0.546-0.104 0.13-0.229 0.243-0.377 0.338-0.199 0.139-0.372 0.23-0.52 0.273 0.373 0.147 0.659 0.338 0.858 0.572 0.364 0.425 0.546 0.975 0.546 1.651 0 0.893-0.29 1.564-0.871 2.015-0.58 0.442-1.326 0.663-2.236 0.663-0.901 0-1.733-0.212-2.496-0.637z"/>
  <path d="m638.72 473v-9.36h1.482v8.112h3.549l-0.182 1.248h-4.849zm6.219 0v-0.832l1.365-0.26v-6.565l-1.274 0.806-0.559-1.001 1.274-0.806c0.234-0.156 0.438-0.234 0.611-0.234l1.352 0.143v7.657h1.378l-0.182 1.092h-3.965zm4.764-2.015-0.013-0.832 3.445-5.746c0.121-0.199 0.29-0.299 0.507-0.299l1.456 0.182v5.603h1.118l-0.182 1.092h-0.936v2.015h-1.391v-2.015h-4.004zm4.043-5.421-2.418 4.329h2.418v-4.329z"/>
  <path d="m680.54 473v-9.36h1.482v8.112h3.549l-0.182 1.248h-4.849zm6.219 0v-0.832l1.365-0.26v-6.565l-1.274 0.806-0.559-1.001 1.274-0.806c0.234-0.156 0.438-0.234 0.611-0.234l1.352 0.143v7.657h1.378l-0.182 1.092h-3.965zm4.972-0.468 0.325-1.014c0.173 0.078 0.455 0.165 0.845 0.26 0.398 0.087 0.767 0.13 1.105 0.13 1.204 0 1.807-0.559 1.807-1.677 0-0.598-0.143-1.031-0.429-1.3s-0.689-0.403-1.209-0.403c-0.512 0-0.941 0.061-1.287 0.182l-0.754-0.78 0.52-3.744h4.277v1.092h-2.99l-0.273 2.21c0.329-0.035 0.589-0.052 0.78-0.052 0.866 0 1.555 0.247 2.067 0.741 0.52 0.494 0.78 1.192 0.78 2.093 0 0.893-0.286 1.573-0.858 2.041-0.572 0.459-1.348 0.689-2.327 0.689-0.425 0-0.88-0.052-1.365-0.156-0.477-0.104-0.815-0.208-1.014-0.312z"/>
  <path d="m719.79 473v-9.36h1.482v8.112h3.549l-0.182 1.248h-4.849zm6.219 0v-0.832l1.365-0.26v-6.565l-1.274 0.806-0.559-1.001 1.274-0.806c0.234-0.156 0.437-0.234 0.611-0.234l1.352 0.143v7.657h1.378l-0.182 1.092h-3.965zm6.648-5.304c0.598-0.338 1.214-0.507 1.846-0.507 0.633 0 1.209 0.256 1.729 0.767 0.52 0.503 0.78 1.187 0.78 2.054 0 0.858-0.251 1.599-0.754 2.223-0.494 0.615-1.217 0.923-2.171 0.923-0.953 0-1.698-0.312-2.236-0.936-0.528-0.633-0.793-1.543-0.793-2.73 0-0.919 0.126-1.733 0.377-2.444 0.26-0.711 0.611-1.283 1.053-1.716 0.902-0.867 2.015-1.3 3.341-1.3l0.104 1.105c-0.502 0-0.953 0.069-1.352 0.208-0.398 0.139-0.71 0.303-0.936 0.494-0.216 0.182-0.398 0.403-0.546 0.663-0.234 0.399-0.381 0.797-0.442 1.196zm0.156 3.523c0.104 0.269 0.269 0.477 0.494 0.624 0.226 0.147 0.529 0.221 0.91 0.221 0.39 0 0.72-0.182 0.988-0.546 0.269-0.364 0.403-0.854 0.403-1.469s-0.134-1.062-0.403-1.339c-0.26-0.286-0.615-0.429-1.066-0.429-0.65 0-1.17 0.165-1.56 0.494-0.026 0.217-0.039 0.477-0.039 0.78s0.018 0.589 0.052 0.858c0.044 0.26 0.117 0.529 0.221 0.806z"/>
  <path d="m761.71 473v-9.36h1.482v8.112h3.549l-0.182 1.248h-4.849zm6.219 0v-0.832l1.365-0.26v-6.565l-1.274 0.806-0.559-1.001 1.274-0.806c0.234-0.156 0.437-0.234 0.611-0.234l1.352 0.143v7.657h1.378l-0.182 1.092h-3.965zm5.374 0c0-0.607 0.117-1.231 0.351-1.872s0.52-1.222 0.858-1.742 0.676-1.018 1.014-1.495c0.806-1.135 1.209-1.963 1.209-2.483h-3.835v-1.222h5.33v0.702c0 0.901-0.403 1.941-1.209 3.12-0.338 0.494-0.676 0.997-1.014 1.508s-0.624 1.075-0.858 1.69c-0.234 0.607-0.351 1.205-0.351 1.794h-1.495z"/>
 </g>
 <g class="work-center work-center-state-machine-downtime" transform="translate(-239,-231)" data-work-center-uid="l8">
  <rect x="614.54" y="589.54" width="33.929" height="223.15" fill="#fff" stroke="#575353" stroke-width=".78367" data-uid="l8"/>
  <path d="m625.78 703.2v-9.36h1.482v8.112h3.549l-0.182 1.248zm9.066 0.156c-0.884 0-1.59-0.212-2.119-0.637s-0.793-1.005-0.793-1.742c0-0.745 0.433-1.551 1.3-2.418-0.763-0.468-1.144-1.118-1.144-1.95 0-0.711 0.269-1.283 0.806-1.716 0.537-0.442 1.226-0.663 2.067-0.663s1.512 0.191 2.015 0.572 0.754 0.88 0.754 1.495c0 0.737-0.39 1.469-1.17 2.197 0.884 0.537 1.326 1.283 1.326 2.236 0 0.78-0.286 1.413-0.858 1.898s-1.3 0.728-2.184 0.728zm0.624-5.252c0.199-0.217 0.351-0.39 0.455-0.52 0.277-0.347 0.416-0.711 0.416-1.092s-0.117-0.702-0.351-0.962c-0.225-0.26-0.563-0.39-1.014-0.39s-0.819 0.143-1.105 0.429c-0.277 0.286-0.416 0.628-0.416 1.027 0 0.39 0.199 0.724 0.598 1.001 0.407 0.269 0.88 0.438 1.417 0.507zm-1.183 0.91c-0.225 0.243-0.399 0.442-0.52 0.598-0.321 0.399-0.481 0.819-0.481 1.261 0 0.433 0.13 0.797 0.39 1.092s0.646 0.442 1.157 0.442 0.919-0.16 1.222-0.481c0.312-0.329 0.468-0.715 0.468-1.157s-0.217-0.823-0.65-1.144-0.962-0.524-1.586-0.611z" fill="#626162"/>
 </g>
</svg>
