<svg width="792" height="137" viewBox="0 0 792 137" fill="none" xmlns="http://www.w3.org/2000/svg">
<path d="M82.0039 0.5H791.5V136.5H0.832973L69.2072 8.18131C71.7263 3.4536 76.6469 0.5 82.0039 0.5Z" stroke="#C4C4C4"/>
<rect x="85.1" y="61.1" width="19.8" height="19.8" fill="white" stroke="#626162" stroke-width="0.2"/>
<path d="M120.718 77L119.314 77.162C119.062 77.162 118.84 77.012 118.648 76.712L112.726 67.19L112.996 77H110.944V64.04L112.348 63.878C112.612 63.878 112.84 64.028 113.032 64.328L118.99 73.832L118.666 64.04H120.718V77ZM129.03 77.216C127.506 77.216 126.24 76.664 125.232 75.56C124.236 74.444 123.738 72.824 123.738 70.7C123.738 68.564 124.248 66.884 125.268 65.66C126.288 64.436 127.818 63.824 129.858 63.824C131.394 63.824 132.66 64.376 133.656 65.48C134.652 66.572 135.15 68.186 135.15 70.322C135.15 72.446 134.64 74.126 133.62 75.362C132.6 76.598 131.07 77.216 129.03 77.216ZM129.372 75.488C130.728 75.488 131.676 75.05 132.216 74.174C132.768 73.286 133.044 71.99 133.044 70.286C133.044 68.582 132.732 67.37 132.108 66.65C131.496 65.918 130.638 65.552 129.534 65.552C128.154 65.552 127.194 66.026 126.654 66.974C126.162 67.85 125.916 69.122 125.916 70.79C125.916 72.446 126.222 73.646 126.834 74.39C127.446 75.122 128.292 75.488 129.372 75.488ZM143.393 77V64.148C144.329 64.004 145.763 63.932 147.695 63.932C148.991 63.932 149.987 64.304 150.683 65.048C151.379 65.78 151.727 66.776 151.727 68.036C151.727 69.296 151.307 70.34 150.467 71.168C149.639 71.996 148.505 72.41 147.065 72.41C146.777 72.41 146.237 72.398 145.445 72.374V77H143.393ZM145.445 70.79C145.733 70.802 146.201 70.808 146.849 70.808C147.833 70.808 148.529 70.586 148.937 70.142C149.357 69.698 149.567 69.05 149.567 68.198C149.567 67.346 149.375 66.692 148.991 66.236C148.607 65.78 147.971 65.552 147.083 65.552C146.543 65.552 145.997 65.57 145.445 65.606V70.79ZM154.573 77V64.148C155.509 64.004 156.943 63.932 158.875 63.932C160.171 63.932 161.167 64.304 161.863 65.048C162.559 65.78 162.907 66.722 162.907 67.874C162.907 68.666 162.715 69.368 162.331 69.98C161.947 70.58 161.395 71.036 160.675 71.348L161.881 74.156C162.097 74.648 162.367 75.032 162.691 75.308C163.015 75.572 163.363 75.704 163.735 75.704L163.447 77.108H163.015C162.463 77.108 161.917 76.964 161.377 76.676C160.849 76.376 160.453 75.932 160.189 75.344L158.569 71.762C158.473 71.774 158.317 71.78 158.101 71.78H156.625V77H154.573ZM156.625 70.196H159.649C159.817 70.136 160.003 69.992 160.207 69.764C160.567 69.356 160.747 68.768 160.747 68C160.747 66.368 159.979 65.552 158.443 65.552C157.915 65.552 157.309 65.582 156.625 65.642V70.196ZM170.567 77.216C169.043 77.216 167.777 76.664 166.769 75.56C165.773 74.444 165.275 72.824 165.275 70.7C165.275 68.564 165.785 66.884 166.805 65.66C167.825 64.436 169.355 63.824 171.395 63.824C172.931 63.824 174.197 64.376 175.193 65.48C176.189 66.572 176.687 68.186 176.687 70.322C176.687 72.446 176.177 74.126 175.157 75.362C174.137 76.598 172.607 77.216 170.567 77.216ZM170.909 75.488C172.265 75.488 173.213 75.05 173.753 74.174C174.305 73.286 174.581 71.99 174.581 70.286C174.581 68.582 174.269 67.37 173.645 66.65C173.033 65.918 172.175 65.552 171.071 65.552C169.691 65.552 168.731 66.026 168.191 66.974C167.699 67.85 167.453 69.122 167.453 70.79C167.453 72.446 167.759 73.646 168.371 74.39C168.983 75.122 169.829 75.488 170.909 75.488ZM179.71 77V64.13C181.162 63.998 182.8 63.932 184.624 63.932C186.172 63.932 187.438 64.466 188.422 65.534C189.418 66.602 189.916 68.198 189.916 70.322C189.916 72.434 189.406 74.096 188.386 75.308C187.366 76.508 185.806 77.108 183.706 77.108C181.606 77.108 180.274 77.072 179.71 77ZM181.762 75.416C182.482 75.464 183.274 75.488 184.138 75.488C185.494 75.488 186.442 75.05 186.982 74.174C187.534 73.286 187.81 71.99 187.81 70.286C187.81 68.582 187.498 67.37 186.874 66.65C186.262 65.918 185.404 65.552 184.3 65.552C183.808 65.552 182.962 65.588 181.762 65.66V75.416ZM192.622 73.094V64.04H194.674V72.77C194.674 73.634 194.884 74.324 195.304 74.84C195.736 75.344 196.396 75.596 197.284 75.596C199.108 75.596 200.02 74.66 200.02 72.788V64.04H202.072V72.464C202.072 73.916 201.658 75.074 200.83 75.938C200.002 76.79 198.808 77.216 197.248 77.216C195.688 77.216 194.524 76.85 193.756 76.118C193 75.374 192.622 74.366 192.622 73.094ZM204.773 70.466C204.773 67.754 205.649 65.84 207.401 64.724C208.325 64.124 209.459 63.824 210.803 63.824C212.135 63.824 213.389 64.04 214.565 64.472C214.721 64.532 214.805 64.562 214.817 64.562L214.295 66.146C214.283 66.146 214.199 66.128 214.043 66.092C213.899 66.044 213.749 66.002 213.593 65.966C213.449 65.918 213.257 65.87 213.017 65.822C212.777 65.774 212.549 65.732 212.333 65.696C211.853 65.6 211.343 65.552 210.803 65.552C209.459 65.552 208.475 65.93 207.851 66.686C207.239 67.442 206.933 68.714 206.933 70.502C206.933 72.53 207.287 73.886 207.995 74.57C208.355 74.918 208.751 75.158 209.183 75.29C209.615 75.422 210.137 75.488 210.749 75.488C211.865 75.488 213.047 75.266 214.295 74.822L214.817 76.46L214.349 76.604C213.053 77.012 211.721 77.216 210.353 77.216C208.565 77.216 207.185 76.646 206.213 75.506C205.253 74.366 204.773 72.686 204.773 70.466ZM219.571 77V65.66H215.737V64.04H225.601L225.349 65.66H221.623V77H219.571ZM227.522 77V64.04H229.574V77H227.522ZM237.892 77.216C236.368 77.216 235.102 76.664 234.094 75.56C233.098 74.444 232.6 72.824 232.6 70.7C232.6 68.564 233.11 66.884 234.13 65.66C235.15 64.436 236.68 63.824 238.72 63.824C240.256 63.824 241.522 64.376 242.518 65.48C243.514 66.572 244.012 68.186 244.012 70.322C244.012 72.446 243.502 74.126 242.482 75.362C241.462 76.598 239.932 77.216 237.892 77.216ZM238.234 75.488C239.59 75.488 240.538 75.05 241.078 74.174C241.63 73.286 241.906 71.99 241.906 70.286C241.906 68.582 241.594 67.37 240.97 66.65C240.358 65.918 239.5 65.552 238.396 65.552C237.016 65.552 236.056 66.026 235.516 66.974C235.024 67.85 234.778 69.122 234.778 70.79C234.778 72.446 235.084 73.646 235.696 74.39C236.308 75.122 237.154 75.488 238.234 75.488ZM256.808 77L255.404 77.162C255.152 77.162 254.93 77.012 254.738 76.712L248.816 67.19L249.086 77H247.034V64.04L248.438 63.878C248.702 63.878 248.93 64.028 249.122 64.328L255.08 73.832L254.756 64.04H256.808V77Z" fill="#626162"/>
<path d="M111.372 29.216C109.848 29.216 108.582 28.664 107.574 27.56C106.578 26.444 106.08 24.824 106.08 22.7C106.08 20.564 106.59 18.884 107.61 17.66C108.63 16.436 110.16 15.824 112.2 15.824C113.736 15.824 115.002 16.376 115.998 17.48C116.994 18.572 117.492 20.186 117.492 22.322C117.492 24.446 116.982 26.126 115.962 27.362C114.942 28.598 113.412 29.216 111.372 29.216ZM111.714 27.488C113.07 27.488 114.018 27.05 114.558 26.174C115.11 25.286 115.386 23.99 115.386 22.286C115.386 20.582 115.074 19.37 114.45 18.65C113.838 17.918 112.98 17.552 111.876 17.552C110.496 17.552 109.536 18.026 108.996 18.974C108.504 19.85 108.258 21.122 108.258 22.79C108.258 24.446 108.564 25.646 109.176 26.39C109.788 27.122 110.634 27.488 111.714 27.488ZM120.514 29V16.148C121.45 16.004 122.884 15.932 124.816 15.932C126.112 15.932 127.108 16.304 127.804 17.048C128.5 17.78 128.848 18.776 128.848 20.036C128.848 21.296 128.428 22.34 127.588 23.168C126.76 23.996 125.626 24.41 124.186 24.41C123.898 24.41 123.358 24.398 122.566 24.374V29H120.514ZM122.566 22.79C122.854 22.802 123.322 22.808 123.97 22.808C124.954 22.808 125.65 22.586 126.058 22.142C126.478 21.698 126.688 21.05 126.688 20.198C126.688 19.346 126.496 18.692 126.112 18.236C125.728 17.78 125.092 17.552 124.204 17.552C123.664 17.552 123.118 17.57 122.566 17.606V22.79ZM131.694 29V16.04H139.2V17.714H133.746V21.638H138.48V23.204H133.746V27.326H139.56L139.308 29H131.694ZM142.469 29V16.148C143.405 16.004 144.839 15.932 146.771 15.932C148.067 15.932 149.063 16.304 149.759 17.048C150.455 17.78 150.803 18.722 150.803 19.874C150.803 20.666 150.611 21.368 150.227 21.98C149.843 22.58 149.291 23.036 148.571 23.348L149.777 26.156C149.993 26.648 150.263 27.032 150.587 27.308C150.911 27.572 151.259 27.704 151.631 27.704L151.343 29.108H150.911C150.359 29.108 149.813 28.964 149.273 28.676C148.745 28.376 148.349 27.932 148.085 27.344L146.465 23.762C146.369 23.774 146.213 23.78 145.997 23.78H144.521V29H142.469ZM144.521 22.196H147.545C147.713 22.136 147.899 21.992 148.103 21.764C148.463 21.356 148.643 20.768 148.643 20C148.643 18.368 147.875 17.552 146.339 17.552C145.811 17.552 145.205 17.582 144.521 17.642V22.196ZM152.893 29L157.159 16.31C157.255 16.058 157.465 15.932 157.789 15.932C157.921 15.932 158.563 15.968 159.715 16.04L164.017 29H161.911L160.741 25.22H156.187L155.035 29H152.893ZM156.673 23.6H160.237L158.437 17.768V17.876L156.673 23.6ZM167.073 29V17.66H163.239V16.04H173.103L172.851 17.66H169.125V29H167.073ZM175.024 29V16.04H177.076V29H175.024ZM185.393 29.216C183.869 29.216 182.603 28.664 181.595 27.56C180.599 26.444 180.101 24.824 180.101 22.7C180.101 20.564 180.611 18.884 181.631 17.66C182.651 16.436 184.181 15.824 186.221 15.824C187.757 15.824 189.023 16.376 190.019 17.48C191.015 18.572 191.513 20.186 191.513 22.322C191.513 24.446 191.003 26.126 189.983 27.362C188.963 28.598 187.433 29.216 185.393 29.216ZM185.735 27.488C187.091 27.488 188.039 27.05 188.579 26.174C189.131 25.286 189.407 23.99 189.407 22.286C189.407 20.582 189.095 19.37 188.471 18.65C187.859 17.918 187.001 17.552 185.897 17.552C184.517 17.552 183.557 18.026 183.017 18.974C182.525 19.85 182.279 21.122 182.279 22.79C182.279 24.446 182.585 25.646 183.197 26.39C183.809 27.122 184.655 27.488 185.735 27.488ZM204.31 29L202.906 29.162C202.654 29.162 202.432 29.012 202.24 28.712L196.318 19.19L196.588 29H194.536V16.04L195.94 15.878C196.204 15.878 196.432 16.028 196.624 16.328L202.582 25.832L202.258 16.04H204.31V29ZM212.371 28.172L213.001 26.498C214.237 27.17 215.269 27.506 216.097 27.506C216.925 27.506 217.555 27.344 217.987 27.02C218.419 26.696 218.635 26.252 218.635 25.688C218.635 25.064 218.359 24.566 217.807 24.194C217.495 23.99 217.231 23.84 217.015 23.744C216.811 23.648 216.487 23.51 216.043 23.33C215.611 23.138 215.275 22.988 215.035 22.88C214.795 22.76 214.507 22.592 214.171 22.376C213.847 22.148 213.595 21.92 213.415 21.692C212.947 21.128 212.713 20.444 212.713 19.64C212.713 18.524 213.097 17.618 213.865 16.922C214.645 16.226 215.623 15.878 216.799 15.878C217.519 15.878 218.215 15.998 218.887 16.238C219.559 16.478 220.075 16.718 220.435 16.958L219.715 18.524C218.539 17.912 217.621 17.606 216.961 17.606C216.301 17.606 215.773 17.768 215.377 18.092C214.981 18.404 214.783 18.818 214.783 19.334C214.783 19.91 215.041 20.372 215.557 20.72C215.989 21.008 216.487 21.272 217.051 21.512C217.615 21.752 218.011 21.926 218.239 22.034C218.479 22.142 218.779 22.316 219.139 22.556C219.499 22.796 219.775 23.036 219.967 23.276C220.447 23.9 220.687 24.632 220.687 25.472C220.687 26.684 220.255 27.614 219.391 28.262C218.539 28.898 217.417 29.216 216.025 29.216C214.633 29.216 213.415 28.868 212.371 28.172ZM225.731 29V17.66H221.897V16.04H231.761L231.509 17.66H227.783V29H225.731ZM230.835 29L235.101 16.31C235.197 16.058 235.407 15.932 235.731 15.932C235.863 15.932 236.505 15.968 237.657 16.04L241.959 29H239.853L238.683 25.22H234.129L232.977 29H230.835ZM234.615 23.6H238.179L236.379 17.768V17.876L234.615 23.6ZM245.015 29V17.66H241.181V16.04H251.045L250.793 17.66H247.067V29H245.015ZM252.641 25.094V16.04H254.693V24.77C254.693 25.634 254.903 26.324 255.323 26.84C255.755 27.344 256.415 27.596 257.303 27.596C259.127 27.596 260.039 26.66 260.039 24.788V16.04H262.091V24.464C262.091 25.916 261.677 27.074 260.849 27.938C260.021 28.79 258.827 29.216 257.267 29.216C255.707 29.216 254.543 28.85 253.775 28.118C253.019 27.374 252.641 26.366 252.641 25.094ZM264.613 28.172L265.243 26.498C266.479 27.17 267.511 27.506 268.339 27.506C269.167 27.506 269.797 27.344 270.229 27.02C270.661 26.696 270.877 26.252 270.877 25.688C270.877 25.064 270.601 24.566 270.049 24.194C269.737 23.99 269.473 23.84 269.257 23.744C269.053 23.648 268.729 23.51 268.285 23.33C267.853 23.138 267.517 22.988 267.277 22.88C267.037 22.76 266.749 22.592 266.413 22.376C266.089 22.148 265.837 21.92 265.657 21.692C265.189 21.128 264.955 20.444 264.955 19.64C264.955 18.524 265.339 17.618 266.107 16.922C266.887 16.226 267.865 15.878 269.041 15.878C269.761 15.878 270.457 15.998 271.129 16.238C271.801 16.478 272.317 16.718 272.677 16.958L271.957 18.524C270.781 17.912 269.863 17.606 269.203 17.606C268.543 17.606 268.015 17.768 267.619 18.092C267.223 18.404 267.025 18.818 267.025 19.334C267.025 19.91 267.283 20.372 267.799 20.72C268.231 21.008 268.729 21.272 269.293 21.512C269.857 21.752 270.253 21.926 270.481 22.034C270.721 22.142 271.021 22.316 271.381 22.556C271.741 22.796 272.017 23.036 272.209 23.276C272.689 23.9 272.929 24.632 272.929 25.472C272.929 26.684 272.497 27.614 271.633 28.262C270.781 28.898 269.659 29.216 268.267 29.216C266.875 29.216 265.657 28.868 264.613 28.172ZM280.44 22.754C280.236 22.526 280.134 22.256 280.134 21.944C280.134 21.632 280.236 21.368 280.44 21.152C280.644 20.924 280.914 20.81 281.25 20.81C281.586 20.81 281.856 20.924 282.06 21.152C282.264 21.368 282.366 21.632 282.366 21.944C282.366 22.256 282.264 22.526 282.06 22.754C281.856 22.97 281.586 23.078 281.25 23.078C280.914 23.078 280.644 22.97 280.44 22.754ZM280.44 28.874C280.236 28.646 280.134 28.376 280.134 28.064C280.134 27.752 280.236 27.488 280.44 27.272C280.644 27.044 280.914 26.93 281.25 26.93C281.586 26.93 281.856 27.044 282.06 27.272C282.264 27.488 282.366 27.752 282.366 28.064C282.366 28.376 282.264 28.646 282.06 28.874C281.856 29.09 281.586 29.198 281.25 29.198C280.914 29.198 280.644 29.09 280.44 28.874Z" fill="#9B003E"/>
<rect x="86" y="98" width="20" height="20" fill="#FFA000"/>
<path d="M111.944 114V101.13C113.396 100.998 115.034 100.932 116.858 100.932C118.406 100.932 119.672 101.466 120.656 102.534C121.652 103.602 122.15 105.198 122.15 107.322C122.15 109.434 121.64 111.096 120.62 112.308C119.6 113.508 118.04 114.108 115.94 114.108C113.84 114.108 112.508 114.072 111.944 114ZM113.996 112.416C114.716 112.464 115.508 112.488 116.372 112.488C117.728 112.488 118.676 112.05 119.216 111.174C119.768 110.286 120.044 108.99 120.044 107.286C120.044 105.582 119.732 104.37 119.108 103.65C118.496 102.918 117.638 102.552 116.534 102.552C116.042 102.552 115.196 102.588 113.996 102.66V112.416ZM125.18 114V101.04H127.232V114H125.18ZM131.122 114V101.04H138.628V102.714H133.174V106.638H137.908V108.204H133.174V112.326H138.988L138.736 114H131.122ZM146.254 107.466C146.254 104.754 147.13 102.84 148.882 101.724C149.806 101.124 150.94 100.824 152.284 100.824C153.616 100.824 154.87 101.04 156.046 101.472C156.202 101.532 156.286 101.562 156.298 101.562L155.776 103.146C155.764 103.146 155.68 103.128 155.524 103.092C155.38 103.044 155.23 103.002 155.074 102.966C154.93 102.918 154.738 102.87 154.498 102.822C154.258 102.774 154.03 102.732 153.814 102.696C153.334 102.6 152.824 102.552 152.284 102.552C150.94 102.552 149.956 102.93 149.332 103.686C148.72 104.442 148.414 105.714 148.414 107.502C148.414 109.53 148.768 110.886 149.476 111.57C149.836 111.918 150.232 112.158 150.664 112.29C151.096 112.422 151.618 112.488 152.23 112.488C153.346 112.488 154.528 112.266 155.776 111.822L156.298 113.46L155.83 113.604C154.534 114.012 153.202 114.216 151.834 114.216C150.046 114.216 148.666 113.646 147.694 112.506C146.734 111.366 146.254 109.686 146.254 107.466ZM159.036 114V101.04H161.088V106.44H166.524V101.04H168.576V114H166.524V108.168H161.088V114H159.036ZM170.971 114L175.237 101.31C175.333 101.058 175.543 100.932 175.867 100.932C175.999 100.932 176.641 100.968 177.793 101.04L182.095 114H179.989L178.819 110.22H174.265L173.113 114H170.971ZM174.751 108.6H178.315L176.515 102.768V102.876L174.751 108.6ZM194.263 114L192.859 114.162C192.607 114.162 192.385 114.012 192.193 113.712L186.271 104.19L186.541 114H184.489V101.04L185.893 100.878C186.157 100.878 186.385 101.028 186.577 101.328L192.535 110.832L192.211 101.04H194.263V114ZM197.283 107.466C197.283 104.754 198.159 102.84 199.911 101.724C200.835 101.124 201.969 100.824 203.313 100.824C204.645 100.824 205.899 101.04 207.075 101.472C207.231 101.532 207.315 101.562 207.327 101.562L206.805 103.146C206.793 103.146 206.709 103.128 206.553 103.092C206.409 103.044 206.259 103.002 206.103 102.966C205.959 102.918 205.767 102.87 205.527 102.822C205.287 102.774 205.059 102.732 204.843 102.696C204.363 102.6 203.853 102.552 203.313 102.552C201.969 102.552 200.985 102.93 200.361 103.686C199.749 104.442 199.443 105.714 199.443 107.502C199.443 109.53 199.797 110.886 200.505 111.57C200.865 111.918 201.261 112.158 201.693 112.29C202.125 112.422 202.635 112.488 203.223 112.488C203.811 112.488 204.579 112.446 205.527 112.362V108.456L207.579 108.222V113.532C207.567 113.532 207.453 113.562 207.237 113.622C207.021 113.67 206.823 113.718 206.643 113.766C206.463 113.802 206.211 113.85 205.887 113.91C205.575 113.97 205.275 114.024 204.987 114.072C204.267 114.168 203.559 114.216 202.863 114.216C201.075 114.216 199.695 113.646 198.723 112.506C197.763 111.366 197.283 109.686 197.283 107.466ZM210.926 114V101.04H218.432V102.714H212.978V106.638H217.712V108.204H212.978V112.326H218.792L218.54 114H210.926Z" fill="#626162"/>
<rect x="291" y="62" width="20" height="20" fill="#03941A"/>
<path d="M316.944 78V65.148C317.88 65.004 319.314 64.932 321.246 64.932C322.542 64.932 323.538 65.304 324.234 66.048C324.93 66.78 325.278 67.722 325.278 68.874C325.278 69.666 325.086 70.368 324.702 70.98C324.318 71.58 323.766 72.036 323.046 72.348L324.252 75.156C324.468 75.648 324.738 76.032 325.062 76.308C325.386 76.572 325.734 76.704 326.106 76.704L325.818 78.108H325.386C324.834 78.108 324.288 77.964 323.748 77.676C323.22 77.376 322.824 76.932 322.56 76.344L320.94 72.762C320.844 72.774 320.688 72.78 320.472 72.78H318.996V78H316.944ZM318.996 71.196H322.02C322.188 71.136 322.374 70.992 322.578 70.764C322.938 70.356 323.118 69.768 323.118 69C323.118 67.368 322.35 66.552 320.814 66.552C320.286 66.552 319.68 66.582 318.996 66.642V71.196ZM328.538 74.094V65.04H330.59V73.77C330.59 74.634 330.8 75.324 331.22 75.84C331.652 76.344 332.312 76.596 333.2 76.596C335.024 76.596 335.936 75.66 335.936 73.788V65.04H337.988V73.464C337.988 74.916 337.574 76.074 336.746 76.938C335.918 77.79 334.724 78.216 333.164 78.216C331.604 78.216 330.44 77.85 329.672 77.118C328.916 76.374 328.538 75.366 328.538 74.094ZM351.327 78L349.923 78.162C349.671 78.162 349.449 78.012 349.257 77.712L343.335 68.19L343.605 78H341.553V65.04L342.957 64.878C343.221 64.878 343.449 65.028 343.641 65.328L349.599 74.832L349.275 65.04H351.327V78ZM364.986 78L363.582 78.162C363.33 78.162 363.108 78.012 362.916 77.712L356.994 68.19L357.264 78H355.212V65.04L356.616 64.878C356.88 64.878 357.108 65.028 357.3 65.328L363.258 74.832L362.934 65.04H364.986V78ZM368.87 78V65.04H370.922V78H368.87ZM384.585 78L383.181 78.162C382.929 78.162 382.707 78.012 382.515 77.712L376.593 68.19L376.863 78H374.811V65.04L376.215 64.878C376.479 64.878 376.707 65.028 376.899 65.328L382.857 74.832L382.533 65.04H384.585V78ZM387.605 71.466C387.605 68.754 388.481 66.84 390.233 65.724C391.157 65.124 392.291 64.824 393.635 64.824C394.967 64.824 396.221 65.04 397.397 65.472C397.553 65.532 397.637 65.562 397.649 65.562L397.127 67.146C397.115 67.146 397.031 67.128 396.875 67.092C396.731 67.044 396.581 67.002 396.425 66.966C396.281 66.918 396.089 66.87 395.849 66.822C395.609 66.774 395.381 66.732 395.165 66.696C394.685 66.6 394.175 66.552 393.635 66.552C392.291 66.552 391.307 66.93 390.683 67.686C390.071 68.442 389.765 69.714 389.765 71.502C389.765 73.53 390.119 74.886 390.827 75.57C391.187 75.918 391.583 76.158 392.015 76.29C392.447 76.422 392.957 76.488 393.545 76.488C394.133 76.488 394.901 76.446 395.849 76.362V72.456L397.901 72.222V77.532C397.889 77.532 397.775 77.562 397.559 77.622C397.343 77.67 397.145 77.718 396.965 77.766C396.785 77.802 396.533 77.85 396.209 77.91C395.897 77.97 395.597 78.024 395.309 78.072C394.589 78.168 393.881 78.216 393.185 78.216C391.397 78.216 390.017 77.646 389.045 76.506C388.085 75.366 387.605 73.686 387.605 71.466ZM406.469 78V65.148C407.405 65.004 408.839 64.932 410.771 64.932C412.067 64.932 413.063 65.304 413.759 66.048C414.455 66.78 414.803 67.776 414.803 69.036C414.803 70.296 414.383 71.34 413.543 72.168C412.715 72.996 411.581 73.41 410.141 73.41C409.853 73.41 409.313 73.398 408.521 73.374V78H406.469ZM408.521 71.79C408.809 71.802 409.277 71.808 409.925 71.808C410.909 71.808 411.605 71.586 412.013 71.142C412.433 70.698 412.643 70.05 412.643 69.198C412.643 68.346 412.451 67.692 412.067 67.236C411.683 66.78 411.047 66.552 410.159 66.552C409.619 66.552 409.073 66.57 408.521 66.606V71.79ZM417.649 78V65.148C418.585 65.004 420.019 64.932 421.951 64.932C423.247 64.932 424.243 65.304 424.939 66.048C425.635 66.78 425.983 67.722 425.983 68.874C425.983 69.666 425.791 70.368 425.407 70.98C425.023 71.58 424.471 72.036 423.751 72.348L424.957 75.156C425.173 75.648 425.443 76.032 425.767 76.308C426.091 76.572 426.439 76.704 426.811 76.704L426.523 78.108H426.091C425.539 78.108 424.993 77.964 424.453 77.676C423.925 77.376 423.529 76.932 423.265 76.344L421.645 72.762C421.549 72.774 421.393 72.78 421.177 72.78H419.701V78H417.649ZM419.701 71.196H422.725C422.893 71.136 423.079 70.992 423.283 70.764C423.643 70.356 423.823 69.768 423.823 69C423.823 67.368 423.055 66.552 421.519 66.552C420.991 66.552 420.385 66.582 419.701 66.642V71.196ZM433.643 78.216C432.119 78.216 430.853 77.664 429.845 76.56C428.849 75.444 428.351 73.824 428.351 71.7C428.351 69.564 428.861 67.884 429.881 66.66C430.901 65.436 432.431 64.824 434.471 64.824C436.007 64.824 437.273 65.376 438.269 66.48C439.265 67.572 439.763 69.186 439.763 71.322C439.763 73.446 439.253 75.126 438.233 76.362C437.213 77.598 435.683 78.216 433.643 78.216ZM433.985 76.488C435.341 76.488 436.289 76.05 436.829 75.174C437.381 74.286 437.657 72.99 437.657 71.286C437.657 69.582 437.345 68.37 436.721 67.65C436.109 66.918 435.251 66.552 434.147 66.552C432.767 66.552 431.807 67.026 431.267 67.974C430.775 68.85 430.529 70.122 430.529 71.79C430.529 73.446 430.835 74.646 431.447 75.39C432.059 76.122 432.905 76.488 433.985 76.488ZM442.786 78V65.13C444.238 64.998 445.876 64.932 447.7 64.932C449.248 64.932 450.514 65.466 451.498 66.534C452.494 67.602 452.992 69.198 452.992 71.322C452.992 73.434 452.482 75.096 451.462 76.308C450.442 77.508 448.882 78.108 446.782 78.108C444.682 78.108 443.35 78.072 442.786 78ZM444.838 76.416C445.558 76.464 446.35 76.488 447.214 76.488C448.57 76.488 449.518 76.05 450.058 75.174C450.61 74.286 450.886 72.99 450.886 71.286C450.886 69.582 450.574 68.37 449.95 67.65C449.338 66.918 448.48 66.552 447.376 66.552C446.884 66.552 446.038 66.588 444.838 66.66V76.416ZM455.698 74.094V65.04H457.75V73.77C457.75 74.634 457.96 75.324 458.38 75.84C458.812 76.344 459.472 76.596 460.36 76.596C462.184 76.596 463.096 75.66 463.096 73.788V65.04H465.148V73.464C465.148 74.916 464.734 76.074 463.906 76.938C463.078 77.79 461.884 78.216 460.324 78.216C458.764 78.216 457.6 77.85 456.832 77.118C456.076 76.374 455.698 75.366 455.698 74.094ZM467.85 71.466C467.85 68.754 468.726 66.84 470.478 65.724C471.402 65.124 472.536 64.824 473.88 64.824C475.212 64.824 476.466 65.04 477.642 65.472C477.798 65.532 477.882 65.562 477.894 65.562L477.372 67.146C477.36 67.146 477.276 67.128 477.12 67.092C476.976 67.044 476.826 67.002 476.67 66.966C476.526 66.918 476.334 66.87 476.094 66.822C475.854 66.774 475.626 66.732 475.41 66.696C474.93 66.6 474.42 66.552 473.88 66.552C472.536 66.552 471.552 66.93 470.928 67.686C470.316 68.442 470.01 69.714 470.01 71.502C470.01 73.53 470.364 74.886 471.072 75.57C471.432 75.918 471.828 76.158 472.26 76.29C472.692 76.422 473.214 76.488 473.826 76.488C474.942 76.488 476.124 76.266 477.372 75.822L477.894 77.46L477.426 77.604C476.13 78.012 474.798 78.216 473.43 78.216C471.642 78.216 470.262 77.646 469.29 76.506C468.33 75.366 467.85 73.686 467.85 71.466ZM482.648 78V66.66H478.814V65.04H488.678L488.426 66.66H484.7V78H482.648ZM490.598 78V65.04H492.65V78H490.598ZM500.968 78.216C499.444 78.216 498.178 77.664 497.17 76.56C496.174 75.444 495.676 73.824 495.676 71.7C495.676 69.564 496.186 67.884 497.206 66.66C498.226 65.436 499.756 64.824 501.796 64.824C503.332 64.824 504.598 65.376 505.594 66.48C506.59 67.572 507.088 69.186 507.088 71.322C507.088 73.446 506.578 75.126 505.558 76.362C504.538 77.598 503.008 78.216 500.968 78.216ZM501.31 76.488C502.666 76.488 503.614 76.05 504.154 75.174C504.706 74.286 504.982 72.99 504.982 71.286C504.982 69.582 504.67 68.37 504.046 67.65C503.434 66.918 502.576 66.552 501.472 66.552C500.092 66.552 499.132 67.026 498.592 67.974C498.1 68.85 497.854 70.122 497.854 71.79C497.854 73.446 498.16 74.646 498.772 75.39C499.384 76.122 500.23 76.488 501.31 76.488ZM519.884 78L518.48 78.162C518.228 78.162 518.006 78.012 517.814 77.712L511.892 68.19L512.162 78H510.11V65.04L511.514 64.878C511.778 64.878 512.006 65.028 512.198 65.328L518.156 74.832L517.832 65.04H519.884V78Z" fill="#626162"/>
<rect x="291" y="99" width="20" height="20" fill="#800080"/>
<path d="M316.944 115V102.148C317.88 102.004 319.314 101.932 321.246 101.932C322.542 101.932 323.568 102.292 324.324 103.012C325.092 103.72 325.476 104.566 325.476 105.55C325.476 106.762 324.996 107.71 324.036 108.394C325.2 109.03 325.782 110.038 325.782 111.418C325.782 112.462 325.404 113.356 324.648 114.1C323.904 114.844 322.776 115.216 321.264 115.216C319.464 115.216 318.024 115.144 316.944 115ZM318.996 107.746H322.218C322.35 107.638 322.452 107.554 322.524 107.494C322.608 107.434 322.698 107.35 322.794 107.242C322.89 107.122 322.974 106.996 323.046 106.864C323.226 106.528 323.316 106.168 323.316 105.784C323.316 104.296 322.446 103.552 320.706 103.552C320.334 103.552 319.764 103.576 318.996 103.624V107.746ZM318.996 113.488C319.98 113.56 320.652 113.596 321.012 113.596C321.972 113.596 322.644 113.404 323.028 113.02C323.424 112.636 323.622 112.09 323.622 111.382C323.622 110.662 323.418 110.122 323.01 109.762C322.614 109.39 321.93 109.204 320.958 109.204H318.996V113.488ZM328.704 115V102.148C329.64 102.004 331.074 101.932 333.006 101.932C334.302 101.932 335.298 102.304 335.994 103.048C336.69 103.78 337.038 104.722 337.038 105.874C337.038 106.666 336.846 107.368 336.462 107.98C336.078 108.58 335.526 109.036 334.806 109.348L336.012 112.156C336.228 112.648 336.498 113.032 336.822 113.308C337.146 113.572 337.494 113.704 337.866 113.704L337.578 115.108H337.146C336.594 115.108 336.048 114.964 335.508 114.676C334.98 114.376 334.584 113.932 334.32 113.344L332.7 109.762C332.604 109.774 332.448 109.78 332.232 109.78H330.756V115H328.704ZM330.756 108.196H333.78C333.948 108.136 334.134 107.992 334.338 107.764C334.698 107.356 334.878 106.768 334.878 106C334.878 104.368 334.11 103.552 332.574 103.552C332.046 103.552 331.44 103.582 330.756 103.642V108.196ZM340.622 115V102.04H348.128V103.714H342.674V107.638H347.408V109.204H342.674V113.326H348.488L348.236 115H340.622ZM349.903 115L354.169 102.31C354.265 102.058 354.475 101.932 354.799 101.932C354.931 101.932 355.573 101.968 356.725 102.04L361.027 115H358.921L357.751 111.22H353.197L352.045 115H349.903ZM353.683 109.6H357.247L355.447 103.768V103.876L353.683 109.6ZM363.421 115V102.04H365.473V107.62L370.225 101.914L372.367 102.166L368.101 107.152L372.655 115H370.297L366.751 108.718L365.473 110.23V115H363.421Z" fill="#626162"/>
<rect x="564" y="99" width="20" height="20" fill="#C62828"/>
<path d="M589.764 115L590.358 102.166C591.174 102.01 591.966 101.932 592.734 101.932C592.974 101.932 593.148 102.064 593.256 102.328L596.694 111.724L600.132 102.328C600.24 102.064 600.414 101.932 600.654 101.932C601.518 101.932 602.31 102.01 603.03 102.166L603.624 115H601.662L601.356 103.966L598.062 113.2C597.054 113.368 596.358 113.452 595.974 113.452C595.59 113.452 595.35 113.32 595.254 113.056L592.032 103.966L591.726 115H589.764ZM605.835 115L610.101 102.31C610.197 102.058 610.407 101.932 610.731 101.932C610.863 101.932 611.505 101.968 612.657 102.04L616.959 115H614.853L613.683 111.22H609.129L607.977 115H605.835ZM609.615 109.6H613.179L611.379 103.768V103.876L609.615 109.6ZM618.137 108.466C618.137 105.754 619.013 103.84 620.765 102.724C621.689 102.124 622.823 101.824 624.167 101.824C625.499 101.824 626.753 102.04 627.929 102.472C628.085 102.532 628.169 102.562 628.181 102.562L627.659 104.146C627.647 104.146 627.563 104.128 627.407 104.092C627.263 104.044 627.113 104.002 626.957 103.966C626.813 103.918 626.621 103.87 626.381 103.822C626.141 103.774 625.913 103.732 625.697 103.696C625.217 103.6 624.707 103.552 624.167 103.552C622.823 103.552 621.839 103.93 621.215 104.686C620.603 105.442 620.297 106.714 620.297 108.502C620.297 110.53 620.651 111.886 621.359 112.57C621.719 112.918 622.115 113.158 622.547 113.29C622.979 113.422 623.501 113.488 624.113 113.488C625.229 113.488 626.411 113.266 627.659 112.822L628.181 114.46L627.713 114.604C626.417 115.012 625.085 115.216 623.717 115.216C621.929 115.216 620.549 114.646 619.577 113.506C618.617 112.366 618.137 110.686 618.137 108.466ZM630.919 115V102.04H632.971V107.44H638.407V102.04H640.459V115H638.407V109.168H632.971V115H630.919ZM644.348 115V102.04H646.4V115H644.348ZM660.064 115L658.66 115.162C658.408 115.162 658.186 115.012 657.994 114.712L652.072 105.19L652.342 115H650.29V102.04L651.694 101.878C651.958 101.878 652.186 102.028 652.378 102.328L658.336 111.832L658.012 102.04H660.064V115ZM663.948 115V102.04H671.454V103.714H666V107.638H670.734V109.204H666V113.326H671.814L671.562 115H663.948ZM679.944 115V102.13C681.396 101.998 683.034 101.932 684.858 101.932C686.406 101.932 687.672 102.466 688.656 103.534C689.652 104.602 690.15 106.198 690.15 108.322C690.15 110.434 689.64 112.096 688.62 113.308C687.6 114.508 686.04 115.108 683.94 115.108C681.84 115.108 680.508 115.072 679.944 115ZM681.996 113.416C682.716 113.464 683.508 113.488 684.372 113.488C685.728 113.488 686.676 113.05 687.216 112.174C687.768 111.286 688.044 109.99 688.044 108.286C688.044 106.582 687.732 105.37 687.108 104.65C686.496 103.918 685.638 103.552 684.534 103.552C684.042 103.552 683.196 103.588 681.996 103.66V113.416ZM697.608 115.216C696.084 115.216 694.818 114.664 693.81 113.56C692.814 112.444 692.316 110.824 692.316 108.7C692.316 106.564 692.826 104.884 693.846 103.66C694.866 102.436 696.396 101.824 698.436 101.824C699.972 101.824 701.238 102.376 702.234 103.48C703.23 104.572 703.728 106.186 703.728 108.322C703.728 110.446 703.218 112.126 702.198 113.362C701.178 114.598 699.648 115.216 697.608 115.216ZM697.95 113.488C699.306 113.488 700.254 113.05 700.794 112.174C701.346 111.286 701.622 109.99 701.622 108.286C701.622 106.582 701.31 105.37 700.686 104.65C700.074 103.918 699.216 103.552 698.112 103.552C696.732 103.552 695.772 104.026 695.232 104.974C694.74 105.85 694.494 107.122 694.494 108.79C694.494 110.446 694.8 111.646 695.412 112.39C696.024 113.122 696.87 113.488 697.95 113.488ZM707.785 114.55L704.995 102.166L707.137 101.914L709.405 113.524L711.385 105.244C711.445 104.98 711.631 104.848 711.943 104.848C712.267 104.848 712.627 104.878 713.023 104.938C713.419 104.998 713.671 105.052 713.779 105.1L715.849 113.452L718.081 101.914L720.223 102.166L717.325 114.874C717.193 114.934 716.863 114.988 716.335 115.036C715.807 115.096 715.333 115.126 714.913 115.126C714.505 115.126 714.259 114.934 714.175 114.55L712.609 107.404L710.953 114.874C710.821 114.934 710.485 114.988 709.945 115.036C709.417 115.096 708.943 115.126 708.523 115.126C708.103 115.126 707.857 114.934 707.785 114.55ZM732.486 115L731.082 115.162C730.83 115.162 730.608 115.012 730.416 114.712L724.494 105.19L724.764 115H722.712V102.04L724.116 101.878C724.38 101.878 724.608 102.028 724.8 102.328L730.758 111.832L730.434 102.04H732.486V115ZM738.386 115V103.66H734.552V102.04H744.416L744.164 103.66H740.438V115H738.386ZM746.337 115V102.04H748.389V115H746.337ZM752.098 115L752.692 102.166C753.508 102.01 754.3 101.932 755.068 101.932C755.308 101.932 755.482 102.064 755.59 102.328L759.028 111.724L762.466 102.328C762.574 102.064 762.748 101.932 762.988 101.932C763.852 101.932 764.644 102.01 765.364 102.166L765.958 115H763.996L763.69 103.966L760.396 113.2C759.388 113.368 758.692 113.452 758.308 113.452C757.924 113.452 757.684 113.32 757.588 113.056L754.366 103.966L754.06 115H752.098ZM769.663 115V102.04H777.169V103.714H771.715V107.638H776.449V109.204H771.715V113.326H777.529L777.277 115H769.663Z" fill="#626162"/>
<rect x="564" y="63" width="20" height="20" fill="#303F9F"/>
<path d="M589.944 79V66.04H591.996V71.44H597.432V66.04H599.484V79H597.432V73.168H591.996V79H589.944ZM603.05 75.094V66.04H605.102V74.77C605.102 75.634 605.312 76.324 605.732 76.84C606.164 77.344 606.824 77.596 607.712 77.596C609.536 77.596 610.448 76.66 610.448 74.788V66.04H612.5V74.464C612.5 75.916 612.086 77.074 611.258 77.938C610.43 78.79 609.236 79.216 607.676 79.216C606.116 79.216 604.952 78.85 604.184 78.118C603.428 77.374 603.05 76.366 603.05 75.094ZM615.885 79L616.479 66.166C617.295 66.01 618.087 65.932 618.855 65.932C619.095 65.932 619.269 66.064 619.377 66.328L622.815 75.724L626.253 66.328C626.361 66.064 626.535 65.932 626.775 65.932C627.639 65.932 628.431 66.01 629.151 66.166L629.745 79H627.783L627.477 67.966L624.183 77.2C623.175 77.368 622.479 77.452 622.095 77.452C621.711 77.452 621.471 77.32 621.375 77.056L618.153 67.966L617.847 79H615.885ZM631.956 79L636.222 66.31C636.318 66.058 636.528 65.932 636.852 65.932C636.984 65.932 637.626 65.968 638.778 66.04L643.08 79H640.974L639.804 75.22H635.25L634.098 79H631.956ZM635.736 73.6H639.3L637.5 67.768V67.876L635.736 73.6ZM655.247 79L653.843 79.162C653.591 79.162 653.369 79.012 653.177 78.712L647.255 69.19L647.525 79H645.473V66.04L646.877 65.878C647.141 65.878 647.369 66.028 647.561 66.328L653.519 75.832L653.195 66.04H655.247V79ZM664.352 79V66.13C665.804 65.998 667.442 65.932 669.266 65.932C670.814 65.932 672.08 66.466 673.064 67.534C674.06 68.602 674.558 70.198 674.558 72.322C674.558 74.434 674.048 76.096 673.028 77.308C672.008 78.508 670.448 79.108 668.348 79.108C666.248 79.108 664.916 79.072 664.352 79ZM666.404 77.416C667.124 77.464 667.916 77.488 668.78 77.488C670.136 77.488 671.084 77.05 671.624 76.174C672.176 75.286 672.452 73.99 672.452 72.286C672.452 70.582 672.14 69.37 671.516 68.65C670.904 67.918 670.046 67.552 668.942 67.552C668.45 67.552 667.604 67.588 666.404 67.66V77.416ZM682.017 79.216C680.493 79.216 679.227 78.664 678.219 77.56C677.223 76.444 676.725 74.824 676.725 72.7C676.725 70.564 677.235 68.884 678.255 67.66C679.275 66.436 680.805 65.824 682.845 65.824C684.381 65.824 685.647 66.376 686.643 67.48C687.639 68.572 688.137 70.186 688.137 72.322C688.137 74.446 687.627 76.126 686.607 77.362C685.587 78.598 684.057 79.216 682.017 79.216ZM682.359 77.488C683.715 77.488 684.663 77.05 685.203 76.174C685.755 75.286 686.031 73.99 686.031 72.286C686.031 70.582 685.719 69.37 685.095 68.65C684.483 67.918 683.625 67.552 682.521 67.552C681.141 67.552 680.181 68.026 679.641 68.974C679.149 69.85 678.903 71.122 678.903 72.79C678.903 74.446 679.209 75.646 679.821 76.39C680.433 77.122 681.279 77.488 682.359 77.488ZM692.193 78.55L689.403 66.166L691.545 65.914L693.813 77.524L695.793 69.244C695.853 68.98 696.039 68.848 696.351 68.848C696.675 68.848 697.035 68.878 697.431 68.938C697.827 68.998 698.079 69.052 698.187 69.1L700.257 77.452L702.489 65.914L704.631 66.166L701.733 78.874C701.601 78.934 701.271 78.988 700.743 79.036C700.215 79.096 699.741 79.126 699.321 79.126C698.913 79.126 698.667 78.934 698.583 78.55L697.017 71.404L695.361 78.874C695.229 78.934 694.893 78.988 694.353 79.036C693.825 79.096 693.351 79.126 692.931 79.126C692.511 79.126 692.265 78.934 692.193 78.55ZM716.894 79L715.49 79.162C715.238 79.162 715.016 79.012 714.824 78.712L708.902 69.19L709.172 79H707.12V66.04L708.524 65.878C708.788 65.878 709.016 66.028 709.208 66.328L715.166 75.832L714.842 66.04H716.894V79ZM722.794 79V67.66H718.96V66.04H728.824L728.572 67.66H724.846V79H722.794ZM730.745 79V66.04H732.797V79H730.745ZM736.506 79L737.1 66.166C737.916 66.01 738.708 65.932 739.476 65.932C739.716 65.932 739.89 66.064 739.998 66.328L743.436 75.724L746.874 66.328C746.982 66.064 747.156 65.932 747.396 65.932C748.26 65.932 749.052 66.01 749.772 66.166L750.366 79H748.404L748.098 67.966L744.804 77.2C743.796 77.368 743.1 77.452 742.716 77.452C742.332 77.452 742.092 77.32 741.996 77.056L738.774 67.966L738.468 79H736.506ZM754.071 79V66.04H761.577V67.714H756.123V71.638H760.857V73.204H756.123V77.326H761.937L761.685 79H754.071Z" fill="#626162"/>
<path d="M50 44H312C320.284 44 327 37.2843 327 29V0" stroke="#C4C4C4"/>
</svg>
